<svg xmlns="http://www.w3.org/2000/svg" width="571" height="432" fill="none" viewBox="0 0 571 432">
  <ellipse cx="200" cy="199" fill="#2A9D8F" fill-opacity=".35" rx="200" ry="199"/>
  <ellipse cx="407.5" cy="168.5" fill="#2A9D8F" fill-opacity=".4" rx="152.5" ry="153.5"/>
  <ellipse cx="457" cy="317" fill="#2A9D8F" fill-opacity=".3" rx="114" ry="115"/>
  <g clip-path="url(#clip0)">
    <path fill="url(#paint0_linear)" d="M434.871 289.551c-4-4.265-6.23-9.898-6.235-15.752a23.428 23.428 0 013.094-11.505 23.358 23.358 0 018.346-8.483 13.595 13.595 0 01-2.388-7.674c0-7.72 6.459-13.976 14.429-13.976a14.334 14.334 0 018.578 2.741 14.398 14.398 0 015.265 7.322 21.666 21.666 0 017.909-7.415 21.587 21.587 0 0110.5-2.648c11.874 0 21.502 9.326 21.502 20.826a20.214 20.214 0 01-1.317 7.188c.434-.03.873-.066 1.317-.066 9.531 0 17.256 7.484 17.256 16.718 0 .564-.029 1.128-.087 1.689 7.623 3.182 12.96 10.523 12.96 19.072 0 11.464-9.592 20.76-21.43 20.76a22.27 22.27 0 01-3.709-.317c.061.69.102 1.391.102 2.097 0 12.867-10.766 23.298-24.048 23.298a24.444 24.444 0 01-13.694-4.149 18.229 18.229 0 01-11.629 4.149c-9.924 0-17.965-7.792-17.965-17.394 0-.414.036-.824.066-1.233h-.066c-10.623 0-19.236-8.344-19.236-18.637a18.605 18.605 0 012.869-9.81 18.53 18.53 0 017.611-6.801z"/>
    <path fill="#009688" d="M436.815 289.474a22.08 22.08 0 01-5.964-15.077 22.42 22.42 0 012.96-11.013 22.364 22.364 0 017.989-8.12 13.013 13.013 0 01-2.285-7.362c0-7.387 6.184-13.378 13.812-13.378 2.947-.029 5.827.89 8.215 2.623a13.819 13.819 0 015.051 7.005 20.743 20.743 0 017.557-7.084 20.687 20.687 0 0110.031-2.539c11.368 0 20.577 8.928 20.577 19.952a19.322 19.322 0 01-1.26 6.881 17.03 17.03 0 011.26-.061c9.123 0 16.517 7.162 16.517 16.002-.001.54-.03 1.08-.087 1.617 7.296 3.069 12.404 10.073 12.404 18.253 0 10.974-9.184 19.87-20.512 19.87a21.27 21.27 0 01-3.571-.302c.061.66.097 1.331.097 2.006 0 12.314-10.307 22.295-23.017 22.295a23.432 23.432 0 01-13.108-3.97 17.444 17.444 0 01-11.087 3.98c-9.496 0-17.195-7.459-17.195-16.657 0-.399.03-.788.061-1.182h-.061c-10.169 0-18.415-7.986-18.415-17.839a17.813 17.813 0 012.746-9.39 17.747 17.747 0 017.285-6.51z"/>
    <path fill="url(#paint1_linear)" d="M479.078 266.151h-6.73v123.921h6.73V266.151z"/>
    <path fill="#795548" d="M477.69 266.151h-3.724v123.921h3.724V266.151z"/>
    <path fill="#795548" d="M455.466 279.389l-2.66 2.614 22.071 22.574 2.66-2.615-22.071-22.573zM498.015 305.028l-22.88 16.098 2.14 3.057 22.879-16.099-2.139-3.056z"/>
    <path fill="url(#paint2_linear)" d="M479.308 291.725a24.452 24.452 0 004.998-9.076 24.492 24.492 0 00-2.762-20.072 24.41 24.41 0 00-7.262-7.38 14.463 14.463 0 002.306-7.863c0-7.888-6.235-14.283-13.929-14.283a13.954 13.954 0 00-8.404 2.894 14.016 14.016 0 00-4.964 7.389 20.686 20.686 0 00-7.523-7.51 20.608 20.608 0 00-10.249-2.773c-11.465 0-20.761 9.531-20.761 21.287a21.731 21.731 0 001.27 7.346c-.418-.03-.842-.066-1.27-.066-9.185 0-16.665 7.674-16.665 17.087 0 .583.031 1.156.087 1.724a21.193 21.193 0 00-9.145 7.882 21.278 21.278 0 00-3.371 11.609c0 11.721 9.266 21.221 20.69 21.221a20.374 20.374 0 003.572-.322 24.51 24.51 0 00-.097 2.143c0 13.148 10.393 23.81 23.221 23.81a22.716 22.716 0 0013.22-4.241 17.014 17.014 0 0011.225 4.241c9.582 0 17.348-7.966 17.348-17.788 0-.425-.036-.844-.061-1.264h.061c10.261 0 18.573-8.528 18.573-19.046a19.139 19.139 0 00-2.699-9.887 19.071 19.071 0 00-7.409-7.062z"/>
    <path fill="#00897B" d="M476.624 291.612a22.967 22.967 0 005.429-18.216 22.973 22.973 0 00-3.335-9.135 22.904 22.904 0 00-6.814-6.925 13.577 13.577 0 002.163-7.382c0-7.408-5.852-13.409-13.077-13.409-2.85.026-5.614.981-7.874 2.722a13.152 13.152 0 00-4.652 6.927 19.413 19.413 0 00-7.062-7.052 19.356 19.356 0 00-9.623-2.602c-10.761 0-19.486 8.948-19.486 19.982a20.416 20.416 0 001.194 6.897 15.143 15.143 0 00-1.194-.062c-8.638 0-15.638 7.163-15.638 16.039 0 .547.025 1.084.081 1.616a19.917 19.917 0 00-8.574 7.405 19.992 19.992 0 00-3.161 10.895c0 10.999 8.674 19.916 19.424 19.916a19.057 19.057 0 003.363-.302 23.939 23.939 0 00-.092 2.01c0 12.345 9.756 22.347 21.792 22.347a21.317 21.317 0 0012.409-3.981 15.97 15.97 0 0010.537 3.981c8.99 0 16.281-7.475 16.281-16.699 0-.399-.03-.793-.056-1.186h.056c9.628 0 17.435-8.007 17.435-17.88a17.95 17.95 0 00-2.548-9.287 17.884 17.884 0 00-6.978-6.619z"/>
    <path fill="url(#paint3_linear)" d="M442.244 266.105h-5.061v126.249h5.061V266.105z"/>
    <path fill="#795548" d="M441.168 267.88h-2.547v124.474h2.547V267.88z"/>
    <path fill="#795548" d="M459.279 281.91l-20.897 22.627 1.868 1.734 20.897-22.627-1.868-1.734zM418.423 307.731l-1.518 2.05 21.665 16.132 1.518-2.049-21.665-16.133z"/>
    <path fill="url(#paint4_linear)" d="M381.781 328.641a15.72 15.72 0 01-4.245-10.743 15.966 15.966 0 012.109-7.839 15.924 15.924 0 015.687-5.78 9.265 9.265 0 01-1.627-5.244c0-5.259 4.403-9.525 9.832-9.525a9.77 9.77 0 015.845 1.867 9.814 9.814 0 013.589 4.988 14.764 14.764 0 015.391-5.052 14.726 14.726 0 017.156-1.803c8.092 0 14.654 6.354 14.654 14.191a13.768 13.768 0 01-.898 4.901c.296 0 .592-.046.898-.046 6.495 0 11.735 5.116 11.735 11.393 0 .385-.021.769-.061 1.151a14.109 14.109 0 016.384 5.156 14.16 14.16 0 012.448 7.844c0 7.812-6.536 14.145-14.603 14.145a15.042 15.042 0 01-2.551-.215c.046.471.072.947.072 1.428 0 8.768-7.338 15.859-16.389 15.859a16.685 16.685 0 01-9.292-2.778 12.412 12.412 0 01-7.923 2.803c-6.761 0-12.246-5.31-12.246-11.858 0-.287 0-.563.046-.839h-.046c-7.24 0-13.108-5.684-13.108-12.698a12.687 12.687 0 011.959-6.677 12.644 12.644 0 015.184-4.629z"/>
    <path fill="#009688" d="M383.103 328.59a15.048 15.048 0 01-4.082-10.273 15.28 15.28 0 012.019-7.504 15.224 15.224 0 015.446-5.531 8.863 8.863 0 01-1.557-5.019c0-5.034 4.215-9.116 9.409-9.116a9.35 9.35 0 015.596 1.787 9.394 9.394 0 013.435 4.776 14.142 14.142 0 015.158-4.835 14.091 14.091 0 016.848-1.728c7.745 0 14.026 6.083 14.026 13.588a13.169 13.169 0 01-.857 4.691c.286 0 .567-.041.857-.041 6.215 0 11.256 4.88 11.256 10.902.001.367-.018.734-.056 1.1a13.51 13.51 0 016.111 4.934 13.568 13.568 0 012.344 7.508c0 7.479-6.261 13.541-13.981 13.541-.81 0-1.619-.069-2.418-.204.041.45.066.905.066 1.366 0 8.39-7.021 15.194-15.685 15.194a15.966 15.966 0 01-8.929-2.707 11.891 11.891 0 01-7.582 2.707c-6.47 0-11.735-5.08-11.735-11.352 0-.272 0-.538.041-.804h-.041c-6.929 0-12.547-5.443-12.547-12.155a12.138 12.138 0 011.883-6.397 12.086 12.086 0 014.975-4.428z"/>
    <path fill="url(#paint5_linear)" d="M411.905 312.695h-4.587v84.448h4.587v-84.448z"/>
    <path fill="#795548" d="M410.956 312.695h-2.536v84.448h2.536v-84.448z"/>
    <path fill="#795548" d="M395.81 321.713l-1.81 1.78 15.037 15.381 1.811-1.78-15.038-15.381zM424.812 339.183l-15.591 10.97 1.457 2.082 15.591-10.971-1.457-2.081z"/>
    <path fill="url(#paint6_linear)" d="M424.932 331.148a16.418 16.418 0 001.509-19.566 16.355 16.355 0 00-4.882-4.949 9.738 9.738 0 001.531-5.28 9.372 9.372 0 00-2.196-6.255 9.306 9.306 0 00-12.237-1.793 9.35 9.35 0 00-3.89 5.362 13.849 13.849 0 00-11.919-6.901c-7.694 0-13.934 6.395-13.934 14.288-.003 1.681.286 3.35.852 4.932-.281 0-.567-.046-.852-.046a11.302 11.302 0 00-10.373 7.12 11.36 11.36 0 00-.812 4.35c0 .389 0 .778.056 1.156a14.225 14.225 0 00-6.137 5.293 14.278 14.278 0 00-2.261 7.794c0 7.863 6.22 14.242 13.889 14.242.805 0 1.61-.072 2.403-.215-.041.476-.067.952-.067 1.438 0 8.825 6.98 15.982 15.583 15.982a15.245 15.245 0 008.873-2.845 11.42 11.42 0 007.536 2.845 11.752 11.752 0 004.497-.95 11.789 11.789 0 006.301-6.462c.576-1.439.863-2.978.846-4.529 0-.286 0-.568-.041-.849h.041c6.888 0 12.47-5.725 12.47-12.79a12.844 12.844 0 00-1.813-6.634 12.795 12.795 0 00-4.973-4.738z"/>
    <path fill="#00897B" d="M423.131 331.076a15.431 15.431 0 003.652-12.235 15.417 15.417 0 00-2.242-6.136 15.362 15.362 0 00-4.579-4.65 9.108 9.108 0 001.454-4.952 8.79 8.79 0 00-2.06-5.872 8.744 8.744 0 00-11.488-1.685 8.777 8.777 0 00-3.652 5.034 13.027 13.027 0 00-4.741-4.731 12.988 12.988 0 00-6.458-1.745c-7.225 0-13.078 6.006-13.078 13.414-.001 1.578.27 3.144.801 4.629-.265 0-.51-.04-.801-.04a10.603 10.603 0 00-7.463 3.195 10.66 10.66 0 00-3.032 7.548c0 .368 0 .731.051 1.084a13.359 13.359 0 00-5.76 4.966 13.406 13.406 0 00-2.123 7.313c0 7.382 5.837 13.367 13.036 13.367.757-.001 1.511-.07 2.256-.204-.041.445-.062.895-.062 1.35 0 8.283 6.552 15 14.629 15 2.987.002 5.9-.931 8.332-2.67a10.704 10.704 0 007.072 2.67 11.043 11.043 0 007.777-3.334 11.098 11.098 0 003.152-7.87c0-.266 0-.511-.041-.793h.041a11.817 11.817 0 008.332-3.57 11.875 11.875 0 003.373-8.432 12.055 12.055 0 00-1.711-6.215 12.01 12.01 0 00-4.667-4.436z"/>
    <path fill="url(#paint7_linear)" d="M400.058 313.953h-3.398v84.74h3.398v-84.74z"/>
    <path fill="#795548" d="M399.333 315.145h-1.709v83.548h1.709v-83.548z"/>
    <path fill="#795548" d="M411.486 324.556l-14.027 15.187 1.255 1.165 14.026-15.188-1.254-1.164zM384.063 341.894l-1.02 1.376 14.542 10.828 1.019-1.376-14.541-10.828z"/>
    <path fill="url(#paint8_linear)" d="M394.665 272.392H250.778v128.409h143.887V272.392z"/>
    <path fill="#fff" d="M391.093 272.392H156.385v124.316h234.708V272.392z"/>
    <path fill="url(#paint9_linear)" d="M402.323 284.67H171.697v-60.367h222.207c2.233 0 4.375.889 5.953 2.472a8.452 8.452 0 012.466 5.969v51.926z"/>
    <path fill="#E76F51" d="M171.692 226.692H391.92c2.232 0 4.374.889 5.953 2.472a8.452 8.452 0 012.466 5.969v47.982H171.692v-56.423z"/>
    <path fill="#fff" d="M171.692 226.692H391.92c2.232 0 4.374.889 5.953 2.472a8.452 8.452 0 012.466 5.969v47.982H171.692v-56.423z" opacity=".7"/>
    <path fill="url(#paint10_linear)" d="M171.181 158.814l-79.596 56.203v185.778h159.193V215.017l-79.597-56.203z"/>
    <path fill="#E76F51" d="M247.207 214.071l-75.515-55.257-75.515 55.257v46.549h151.03v-46.549z"/>
    <path fill="#fff" d="M247.207 214.071l-75.515-55.257-75.515 55.257v46.549h151.03v-46.549z" opacity=".5"/>
    <path fill="#fff" d="M247.207 260.625H96.177v136.083h151.03V260.625z"/>
    <path fill="url(#paint11_linear)" d="M256.901 241.692l-85.209-61.007-86.23 61.007-5.613-21.456 91.843-67.024 91.842 67.024-6.633 21.456z"/>
    <path fill="#E76F51" d="M256.12 238.55l-84.428-61.61-84.424 61.61-3.607-19.292 88.031-64.235 88.036 64.235-3.608 19.292z"/>
    <path fill="#000" d="M256.12 238.55l-84.428-61.61-84.424 61.61-3.607-19.292 88.031-64.235 88.036 64.235-3.608 19.292z" opacity=".2"/>
    <path fill="#F2F2F2" d="M214.551 290.298h-85.719v106.41h85.719v-106.41z"/>
    <path fill="#E76F51" d="M214.551 290.298h-85.719v18.417h85.719v-18.417zM214.551 378.291h-85.719v18.417h85.719v-18.417z"/>
    <path fill="#0F0" d="M315.241 358.446a.767.767 0 10-.541-1.31.77.77 0 000 1.085.765.765 0 00.541.225z"/>
    <path fill="#F2F2F2" d="M335.987 318.946h-41.839v77.762h41.839v-77.762zM385.991 302.576h-39.288v28.649h39.288v-28.649z"/>
    <path fill="#E76F51" d="M385.991 302.576h-39.288v12.789h39.288v-12.789z" opacity=".2"/>
    <path fill="url(#paint12_linear)" d="M74.971 343.891a13.104 13.104 0 01-3.571-8.947 13.332 13.332 0 011.76-6.534 13.278 13.278 0 014.74-4.818 7.725 7.725 0 01-1.357-4.369 8.095 8.095 0 012.458-5.671 8.052 8.052 0 015.736-2.269 8.146 8.146 0 014.883 1.557 8.184 8.184 0 012.995 4.168 12.288 12.288 0 0110.46-5.715c6.746 0 12.215 5.3 12.215 11.833a11.47 11.47 0 01-.75 4.093c.25 0 .51-.036.75-.036 5.414 0 9.802 4.251 9.802 9.495-.001.32-.018.639-.051.957a11.77 11.77 0 015.322 4.297 11.819 11.819 0 012.041 6.538c0 6.513-5.45 11.792-12.175 11.792-.706 0-1.411-.06-2.107-.179.036.394.056.788.056 1.192 0 7.311-6.123 13.235-13.659 13.235a13.905 13.905 0 01-7.78-2.358 10.358 10.358 0 01-6.608 2.358c-5.613 0-10.205-4.425-10.205-9.889 0-.235 0-.471.036-.701h-.036c-6.036 0-10.93-4.742-10.93-10.585a10.57 10.57 0 011.637-5.581 10.533 10.533 0 014.338-3.863z"/>
    <path fill="#009688" d="M76.058 343.851a12.549 12.549 0 01-3.388-8.564 12.739 12.739 0 011.682-6.255 12.704 12.704 0 014.538-4.612 7.388 7.388 0 01-1.296-4.184 7.744 7.744 0 014.885-7.065 7.72 7.72 0 012.962-.538 7.801 7.801 0 014.663 1.491 7.829 7.829 0 012.863 3.978 11.778 11.778 0 014.301-4.03 11.746 11.746 0 015.71-1.439c6.455 0 11.69 5.07 11.69 11.327a10.991 10.991 0 01-.715 3.909c.235 0 .475-.036.715-.036 5.184 0 9.383 4.092 9.383 9.091 0 .305-.015.611-.046.915a11.267 11.267 0 015.09 4.117 11.304 11.304 0 011.951 6.258c0 6.237-5.215 11.291-11.654 11.291-.684 0-1.366-.058-2.041-.174.036.374.056.757.056 1.141 0 6.993-5.852 12.667-13.077 12.667-2.642 0-5.224-.787-7.419-2.261a9.908 9.908 0 01-6.322 2.256c-5.393 0-9.765-4.236-9.765-9.465 0-.225 0-.45.035-.67h-.035c-5.776 0-10.46-4.537-10.46-10.134.015-1.886.556-3.73 1.563-5.323a10.076 10.076 0 014.131-3.691z"/>
    <path fill="url(#paint13_linear)" d="M100.07 330.6h-3.827V401h3.827v-70.4z"/>
    <path fill="#795548" d="M99.274 330.6h-2.112V401h2.112v-70.4z"/>
    <path fill="#795548" d="M86.649 338.117L85.14 339.6l12.537 12.823 1.509-1.483-12.537-12.823zM110.827 352.683l-12.998 9.145 1.214 1.734 12.997-9.145-1.213-1.734z"/>
    <path fill="url(#paint14_linear)" d="M49.97 343.891a13.104 13.104 0 01-3.572-8.947 13.332 13.332 0 011.761-6.534 13.278 13.278 0 014.74-4.818 7.725 7.725 0 01-1.358-4.369A8.095 8.095 0 0154 313.552a8.052 8.052 0 015.736-2.269 8.146 8.146 0 014.882 1.557 8.184 8.184 0 012.996 4.168 12.287 12.287 0 0110.46-5.715c6.745 0 12.215 5.3 12.215 11.833a11.481 11.481 0 01-.75 4.093c.25 0 .51-.036.75-.036 5.413 0 9.801 4.251 9.801 9.495 0 .32-.017.639-.051.957a11.77 11.77 0 015.322 4.297 11.81 11.81 0 012.041 6.538c0 6.513-5.449 11.792-12.174 11.792-.706 0-1.411-.06-2.108-.179.036.394.056.788.056 1.192 0 7.311-6.122 13.235-13.659 13.235-2.77.007-5.479-.814-7.78-2.358a10.358 10.358 0 01-6.608 2.358c-5.613 0-10.205-4.425-10.205-9.889 0-.235 0-.471.036-.701h-.036c-6.036 0-10.93-4.742-10.93-10.585a10.57 10.57 0 011.637-5.581 10.533 10.533 0 014.339-3.863z"/>
    <path fill="#009688" d="M51.056 343.851a12.548 12.548 0 01-3.387-8.564 12.738 12.738 0 011.682-6.255 12.703 12.703 0 014.537-4.612 7.39 7.39 0 01-1.296-4.184 7.756 7.756 0 012.353-5.431 7.719 7.719 0 015.494-2.172 7.8 7.8 0 014.663 1.491 7.83 7.83 0 012.864 3.978 11.778 11.778 0 014.3-4.03 11.745 11.745 0 015.71-1.439c6.455 0 11.69 5.07 11.69 11.327.001 1.336-.24 2.66-.714 3.909.234 0 .474-.036.714-.036 5.184 0 9.383 4.092 9.383 9.091 0 .305-.015.611-.046.915a11.265 11.265 0 015.091 4.117 11.32 11.32 0 011.951 6.258c0 6.237-5.215 11.291-11.654 11.291-.684 0-1.367-.058-2.041-.174.036.374.056.757.056 1.141 0 6.993-5.852 12.667-13.077 12.667-2.642 0-5.224-.787-7.42-2.261a9.908 9.908 0 01-6.32 2.256c-5.394 0-9.767-4.236-9.767-9.465 0-.225 0-.45.036-.67h-.036c-5.776 0-10.46-4.537-10.46-10.134.015-1.886.557-3.73 1.563-5.323a10.077 10.077 0 014.132-3.691z"/>
    <path fill="url(#paint15_linear)" d="M75.068 330.6h-3.826V401h3.826v-70.4z"/>
    <path fill="#795548" d="M74.272 330.6H72.16V401h2.112v-70.4z"/>
    <path fill="#795548" d="M61.652 338.118l-1.509 1.482 12.537 12.823 1.509-1.482-12.537-12.823zM85.826 352.687l-12.998 9.145 1.214 1.734 12.997-9.145-1.213-1.734z"/>
    <path fill="url(#paint16_linear)" d="M106.846 344.449a13.685 13.685 0 003.255-10.875 13.673 13.673 0 00-6.067-9.588 8.094 8.094 0 001.291-4.4 7.809 7.809 0 00-1.828-5.218 7.758 7.758 0 00-10.206-1.497 7.797 7.797 0 00-3.242 4.474 11.579 11.579 0 00-4.21-4.203 11.545 11.545 0 00-5.735-1.552 11.735 11.735 0 00-10.777 7.39 11.79 11.79 0 00-.84 4.52c0 1.395.24 2.779.708 4.092-.234 0-.469-.036-.709-.036a9.421 9.421 0 00-8.668 5.965 9.48 9.48 0 00-.664 3.643c0 .328 0 .65.046.967a11.86 11.86 0 00-5.115 4.412 11.903 11.903 0 00-1.886 6.495 11.783 11.783 0 003.344 8.334 11.723 11.723 0 008.234 3.54c.672 0 1.343-.06 2.005-.179-.036.394-.056.793-.056 1.197 0 7.357 5.817 13.301 12.99 13.301 2.653 0 5.239-.83 7.399-2.373a9.523 9.523 0 006.28 2.373 9.802 9.802 0 006.901-2.964 9.853 9.853 0 002.794-6.986c0-.24 0-.471-.035-.706h.035a10.501 10.501 0 007.397-3.171 10.559 10.559 0 002.997-7.485 10.708 10.708 0 00-1.506-5.521 10.668 10.668 0 00-4.132-3.949z"/>
    <path fill="#00897B" d="M105.346 344.388a12.85 12.85 0 00-2.643-19.185 7.597 7.597 0 001.209-4.128 7.33 7.33 0 00-1.711-4.905 7.284 7.284 0 00-9.587-1.406 7.318 7.318 0 00-3.04 4.208 10.837 10.837 0 00-9.337-5.402c-2.92.04-5.706 1.24-7.745 3.337a11.075 11.075 0 00-3.133 7.846c-.001 1.315.225 2.62.668 3.857-.22 0-.444-.035-.668-.035a8.836 8.836 0 00-6.229 2.67 8.887 8.887 0 00-2.522 6.303c0 .307 0 .609.046.905a11.135 11.135 0 00-4.8 4.138 11.177 11.177 0 00-1.772 6.094 11.042 11.042 0 003.134 7.827 10.98 10.98 0 007.734 3.315c.632 0 1.262-.056 1.883-.168-.03.373-.051.747-.051 1.125 0 6.907 5.46 12.503 12.195 12.503 2.489.002 4.917-.776 6.944-2.225a8.935 8.935 0 005.888 2.22 9.181 9.181 0 003.519-.742 9.226 9.226 0 004.932-5.056 9.28 9.28 0 00.662-3.543c0-.226 0-.446-.031-.665h.031a9.851 9.851 0 006.945-2.978 9.905 9.905 0 002.811-7.029 10.049 10.049 0 00-1.433-5.185 10.017 10.017 0 00-3.899-3.696z"/>
    <path fill="url(#paint17_linear)" d="M86.105 330.114h-2.832v70.646h2.832v-70.646z"/>
    <path fill="#795548" d="M85.502 331.107H84.08v69.653h1.423v-69.653z"/>
    <path fill="#795548" d="M95.65 338.955l-11.694 12.661 1.045.97 11.693-12.661-1.044-.97zM72.773 353.405l-.848 1.146 12.124 9.029.85-1.146-12.126-9.029z"/>
    <path fill="url(#paint18_linear)" d="M407.967 179.002a78.053 78.053 0 00-25.426-17.657 77.886 77.886 0 00-30.268-6.372 77.887 77.887 0 00-30.36 5.914 78.053 78.053 0 00-25.688 17.27c-29.548 29.867-30.048 78.493-1.148 108.969a77.99 77.99 0 0048.035 23.904 77.904 77.904 0 0052.083-12.808l56.432 58.833a3.807 3.807 0 002.665 1.171 3.78 3.78 0 002.708-1.064l14.057-13.552a3.804 3.804 0 00.907-4.135 3.8 3.8 0 00-.8-1.252l-56.432-58.833a78.42 78.42 0 0014.837-51.428 78.373 78.373 0 00-21.602-48.96zm-17.578 94.602a55.786 55.786 0 01-28.879 14.763 55.71 55.71 0 01-32.193-3.812 55.88 55.88 0 01-24.654-21.103 56.094 56.094 0 01-8.807-31.279 56.088 56.088 0 0110.01-30.914 55.86 55.86 0 0125.451-20.128 55.701 55.701 0 0132.316-2.558 55.8 55.8 0 0128.287 15.873 56.009 56.009 0 0111.75 18.395 56.099 56.099 0 013.835 21.502 56.105 56.105 0 01-4.663 21.338 55.989 55.989 0 01-12.453 17.923z"/>
    <path fill="url(#paint19_linear)" d="M310.338 217.683c-6.281 0-6.291 9.781 0 9.781s6.286-9.781 0-9.781z"/>
    <path fill="url(#paint20_linear)" d="M354.106 186.343c-16.899-.384-32.283 8.119-40.457 20.975-2.668 4.185 4.909 7.884 7.562 3.719 6.771-10.625 19.639-17.394 33.543-17.02 14.583.368 27.854 8.733 34.88 20.34 2.668 4.405 9.648.399 7-3.98-8.526-14.104-25.068-23.64-42.528-24.034z"/>
    <path fill="#E76F51" d="M414.089 176.024a78.054 78.054 0 00-25.425-17.657 77.885 77.885 0 00-60.629-.458 78.062 78.062 0 00-25.687 17.271C272.8 205.047 272.3 253.673 301.2 284.148a77.985 77.985 0 0048.035 23.904 77.909 77.909 0 0052.083-12.807l56.432 58.832a3.784 3.784 0 004.124.91 3.808 3.808 0 001.249-.802l14.062-13.557a3.814 3.814 0 00.107-5.387l-56.432-58.833a78.422 78.422 0 0014.832-51.427 78.369 78.369 0 00-21.603-48.957zm-17.577 94.603a55.783 55.783 0 01-28.88 14.762 55.69 55.69 0 01-32.192-3.812 55.877 55.877 0 01-24.654-21.102 56.095 56.095 0 01-8.807-31.28 56.08 56.08 0 0110.009-30.913 55.856 55.856 0 0125.452-20.128 55.693 55.693 0 0132.316-2.559 55.787 55.787 0 0128.286 15.874 55.991 55.991 0 0111.751 18.394 56.123 56.123 0 01-.829 42.84 55.974 55.974 0 01-12.452 17.924z"/>
    <path fill="#E76F51" d="M316.461 214.69c-6.281 0-6.292 9.782 0 9.782 6.291 0 6.286-9.782 0-9.782zM360.229 183.365c-16.899-.383-32.283 8.119-40.457 20.976-2.668 4.184 4.909 7.883 7.562 3.719 6.771-10.626 19.639-17.394 33.543-17.021 14.582.369 27.854 8.733 34.88 20.341 2.668 4.405 9.648.399 7-3.98-8.526-14.094-25.068-23.636-42.528-24.035z"/>
  </g>
  <defs>
    <linearGradient id="paint0_linear" x1="480.201" x2="480.201" y1="343.411" y2="232.14" gradientUnits="userSpaceOnUse">
      <stop stop-color="gray" stop-opacity=".25"/>
      <stop offset=".54" stop-color="gray" stop-opacity=".12"/>
      <stop offset="1" stop-color="gray" stop-opacity=".1"/>
    </linearGradient>
    <linearGradient id="paint1_linear" x1="6166.73" x2="6166.73" y1="57935.7" y2="27916.8" gradientUnits="userSpaceOnUse">
      <stop stop-color="gray" stop-opacity=".25"/>
      <stop offset=".54" stop-color="gray" stop-opacity=".12"/>
      <stop offset="1" stop-color="gray" stop-opacity=".1"/>
    </linearGradient>
    <linearGradient id="paint2_linear" x1="98832.7" x2="98832.7" y1="71898.8" y2="46618.6" gradientUnits="userSpaceOnUse">
      <stop stop-color="gray" stop-opacity=".25"/>
      <stop offset=".54" stop-color="gray" stop-opacity=".12"/>
      <stop offset="1" stop-color="gray" stop-opacity=".1"/>
    </linearGradient>
    <linearGradient id="paint3_linear" x1="4362.65" x2="4362.65" y1="59580.7" y2="28424.8" gradientUnits="userSpaceOnUse">
      <stop stop-color="gray" stop-opacity=".25"/>
      <stop offset=".54" stop-color="gray" stop-opacity=".12"/>
      <stop offset="1" stop-color="gray" stop-opacity=".1"/>
    </linearGradient>
    <linearGradient id="paint4_linear" x1="66442.3" x2="66442.3" y1="50830.9" y2="39591.6" gradientUnits="userSpaceOnUse">
      <stop stop-color="gray" stop-opacity=".25"/>
      <stop offset=".54" stop-color="gray" stop-opacity=".12"/>
      <stop offset="1" stop-color="gray" stop-opacity=".1"/>
    </linearGradient>
    <linearGradient id="paint5_linear" x1="3694.23" x2="3694.23" y1="40778.4" y2="26838.6" gradientUnits="userSpaceOnUse">
      <stop stop-color="gray" stop-opacity=".25"/>
      <stop offset=".54" stop-color="gray" stop-opacity=".12"/>
      <stop offset="1" stop-color="gray" stop-opacity=".1"/>
    </linearGradient>
    <linearGradient id="paint6_linear" x1="60778.5" x2="60778.5" y1="51578.3" y2="40188.5" gradientUnits="userSpaceOnUse">
      <stop stop-color="gray" stop-opacity=".25"/>
      <stop offset=".54" stop-color="gray" stop-opacity=".12"/>
      <stop offset="1" stop-color="gray" stop-opacity=".1"/>
    </linearGradient>
    <linearGradient id="paint7_linear" x1="2756.66" x2="2756.66" y1="41176.1" y2="27139.9" gradientUnits="userSpaceOnUse">
      <stop stop-color="gray" stop-opacity=".25"/>
      <stop offset=".54" stop-color="gray" stop-opacity=".12"/>
      <stop offset="1" stop-color="gray" stop-opacity=".1"/>
    </linearGradient>
    <linearGradient id="paint8_linear" x1="78850.3" x2="78850.3" y1="62721.3" y2="30490.8" gradientUnits="userSpaceOnUse">
      <stop stop-color="gray" stop-opacity=".25"/>
      <stop offset=".54" stop-color="gray" stop-opacity=".12"/>
      <stop offset="1" stop-color="gray" stop-opacity=".1"/>
    </linearGradient>
    <linearGradient id="paint9_linear" x1="143753" x2="143753" y1="30938.6" y2="23815.3" gradientUnits="userSpaceOnUse">
      <stop stop-color="gray" stop-opacity=".25"/>
      <stop offset=".54" stop-color="gray" stop-opacity=".12"/>
      <stop offset="1" stop-color="gray" stop-opacity=".1"/>
    </linearGradient>
    <linearGradient id="paint10_linear" x1="39772.2" x2="39772.2" y1="117841" y2="3384.42" gradientUnits="userSpaceOnUse">
      <stop stop-color="gray" stop-opacity=".25"/>
      <stop offset=".54" stop-color="gray" stop-opacity=".12"/>
      <stop offset="1" stop-color="gray" stop-opacity=".1"/>
    </linearGradient>
    <linearGradient id="paint11_linear" x1="46048.8" x2="46048.8" y1="15666.3" y2="362.909" gradientUnits="userSpaceOnUse">
      <stop stop-color="gray" stop-opacity=".25"/>
      <stop offset=".54" stop-color="gray" stop-opacity=".12"/>
      <stop offset="1" stop-color="gray" stop-opacity=".1"/>
    </linearGradient>
    <linearGradient id="paint12_linear" x1="16391.9" x2="16391.9" y1="43582.2" y2="35769.7" gradientUnits="userSpaceOnUse">
      <stop stop-color="gray" stop-opacity=".25"/>
      <stop offset=".54" stop-color="gray" stop-opacity=".12"/>
      <stop offset="1" stop-color="gray" stop-opacity=".1"/>
    </linearGradient>
    <linearGradient id="paint13_linear" x1="502.415" x2="502.415" y1="34595.5" y2="24907.8" gradientUnits="userSpaceOnUse">
      <stop stop-color="gray" stop-opacity=".25"/>
      <stop offset=".54" stop-color="gray" stop-opacity=".12"/>
      <stop offset="1" stop-color="gray" stop-opacity=".1"/>
    </linearGradient>
    <linearGradient id="paint14_linear" x1="13259.9" x2="13259.9" y1="43582.2" y2="35769.7" gradientUnits="userSpaceOnUse">
      <stop stop-color="gray" stop-opacity=".25"/>
      <stop offset=".54" stop-color="gray" stop-opacity=".12"/>
      <stop offset="1" stop-color="gray" stop-opacity=".1"/>
    </linearGradient>
    <linearGradient id="paint15_linear" x1="289.903" x2="289.903" y1="34595.5" y2="24907.8" gradientUnits="userSpaceOnUse">
      <stop stop-color="gray" stop-opacity=".25"/>
      <stop offset=".54" stop-color="gray" stop-opacity=".12"/>
      <stop offset="1" stop-color="gray" stop-opacity=".1"/>
    </linearGradient>
    <linearGradient id="paint16_linear" x1="13404.2" x2="13404.2" y1="43960.2" y2="36043.8" gradientUnits="userSpaceOnUse">
      <stop stop-color="gray" stop-opacity=".25"/>
      <stop offset=".54" stop-color="gray" stop-opacity=".12"/>
      <stop offset="1" stop-color="gray" stop-opacity=".1"/>
    </linearGradient>
    <linearGradient id="paint17_linear" x1="309.11" x2="309.11" y1="34681.3" y2="24925.9" gradientUnits="userSpaceOnUse">
      <stop stop-color="gray" stop-opacity=".25"/>
      <stop offset=".54" stop-color="gray" stop-opacity=".12"/>
      <stop offset="1" stop-color="gray" stop-opacity=".1"/>
    </linearGradient>
    <linearGradient id="paint18_linear" x1="372.985" x2="372.985" y1="358.241" y2="154.977" gradientUnits="userSpaceOnUse">
      <stop stop-color="#B3B3B3" stop-opacity=".25"/>
      <stop offset=".54" stop-color="#B3B3B3" stop-opacity=".1"/>
      <stop offset="1" stop-color="#B3B3B3" stop-opacity=".05"/>
    </linearGradient>
    <linearGradient id="paint19_linear" x1="310.338" x2="310.338" y1="227.469" y2="217.683" gradientUnits="userSpaceOnUse">
      <stop stop-opacity=".12"/>
      <stop offset=".55" stop-opacity=".09"/>
      <stop offset="1" stop-opacity=".02"/>
    </linearGradient>
    <linearGradient id="paint20_linear" x1="63929.2" x2="63929.2" y1="11414.4" y2="9663.6" gradientUnits="userSpaceOnUse">
      <stop stop-opacity=".12"/>
      <stop offset=".55" stop-opacity=".09"/>
      <stop offset="1" stop-opacity=".02"/>
    </linearGradient>
    <clipPath id="clip0">
      <path fill="#fff" d="M0 0h492v249H0z" transform="translate(44 152)"/>
    </clipPath>
  </defs>
</svg>
