<?xml version="1.0" encoding="UTF-8" standalone="no"?>
<svg
   xmlns:dc="http://purl.org/dc/elements/1.1/"
   xmlns:cc="http://creativecommons.org/ns#"
   xmlns:rdf="http://www.w3.org/1999/02/22-rdf-syntax-ns#"
   xmlns:svg="http://www.w3.org/2000/svg"
   xmlns="http://www.w3.org/2000/svg"
   xmlns:sodipodi="http://sodipodi.sourceforge.net/DTD/sodipodi-0.dtd"
   xmlns:inkscape="http://www.inkscape.org/namespaces/inkscape"
   id="afdfd1e9-9b52-4ce3-aad9-0a68bb11f588"
   data-name="Layer 1"
   width="120"
   height="50"
   viewBox="0 0 120 50"
   version="1.1"
   sodipodi:docname="undraw_coming_home_52ir_1.svg"
   inkscape:version="1.0.2 (e86c870879, 2021-01-15)">
  <metadata
     id="metadata109">
    <rdf:RDF>
      <cc:Work
         rdf:about="">
        <dc:format>image/svg+xml</dc:format>
        <dc:type
           rdf:resource="http://purl.org/dc/dcmitype/StillImage" />
      </cc:Work>
    </rdf:RDF>
  </metadata>
  <defs
     id="defs107" />
  <sodipodi:namedview
     pagecolor="#ffffff"
     bordercolor="#666666"
     borderopacity="1"
     objecttolerance="10"
     gridtolerance="10"
     guidetolerance="10"
     inkscape:pageopacity="0"
     inkscape:pageshadow="2"
     inkscape:window-width="1920"
     inkscape:window-height="1014"
     id="namedview105"
     showgrid="false"
     inkscape:zoom="0.6074056"
     inkscape:cx="346.26299"
     inkscape:cy="457.10474"
     inkscape:window-x="-9"
     inkscape:window-y="-9"
     inkscape:window-maximized="1"
     inkscape:current-layer="afdfd1e9-9b52-4ce3-aad9-0a68bb11f588" />
  <title
     id="title2">coming home</title>
  <path
     d="m 326.31129,523.80792 -1.12699,-0.25383 c 12.5659,-55.88206 44.14506,-106.62787 88.92011,-142.89001 a 256.51423,256.51423 0 0 1 411.33084,142.2081 l -1.12573,0.25608 C 797.70951,406.33507 695.34923,324.76514 575.38721,324.76514 c -118.38995,0 -223.14149,83.70938 -249.07592,199.04278 z"
     fill="#3f3d56"
     id="path4"
     style="stroke-width:0.999993" />
  <circle
     cx="487.88248"
     cy="163.56236"
     fill="#ff6584"
     id="circle6"
     r="31.371696"
     style="stroke-width:0.999993" />
  <path
     d="m 352.72567,516.68112 c 0.97844,3.61678 4.32966,5.85675 4.32966,5.85675 0,0 1.76496,-3.624 0.78653,-7.24073 -0.97841,-3.61676 -4.32964,-5.85674 -4.32964,-5.85674 0,0 -1.76494,3.62401 -0.78655,7.24072 z"
     fill="#3f3d56"
     id="path8"
     style="stroke-width:0.999993" />
  <path
     d="m 354.16337,515.90388 c 2.68477,2.6135 3.01271,6.63103 3.01271,6.63103 0,0 -4.02489,-0.21977 -6.70968,-2.83328 -2.68472,-2.61346 -3.01267,-6.63103 -3.01267,-6.63103 0,0 4.02488,0.21977 6.70964,2.83328 z"
     fill="#e76f51"
     id="path10"
     style="stroke-width:0.999993" />
  <path
     d="m 427.23433,516.68112 c 0.97843,3.61678 4.32965,5.85675 4.32965,5.85675 0,0 1.76495,-3.624 0.78657,-7.24073 -0.97844,-3.61676 -4.32967,-5.85674 -4.32967,-5.85674 0,0 -1.76493,3.62401 -0.78655,7.24072 z"
     fill="#3f3d56"
     id="path12"
     style="stroke-width:0.999993" />
  <path
     d="m 428.67205,515.90388 c 2.68472,2.6135 3.01267,6.63103 3.01267,6.63103 0,0 -4.02492,-0.21977 -6.70969,-2.83328 -2.68474,-2.61346 -3.01268,-6.63103 -3.01268,-6.63103 0,0 4.02493,0.21977 6.7097,2.83328 z"
     fill="#e76f51"
     id="path14"
     style="stroke-width:0.999993" />
  <polygon
     points="431.66,63.529 721.679,63.529 721.679,153.394 533.779,280.022 337.71,181.988 317.286,165.648 "
     fill="#3f3d56"
     id="polygon16"
     transform="matrix(0.57758646,0,0,0.57758646,246.95195,123.47595)"
     style="stroke-width:1.73142" />
  <polygon
     points="774.556,65.569 736.05,65.569 736.05,79.098 721.679,63.529 627.729,165.648 590.966,190.157 533.964,606.62 619.93,692.585 819.714,692.585 819.714,169.733 774.556,120.812 "
     fill="#cccccc"
     id="polygon18"
     transform="matrix(0.57758646,0,0,0.57758646,246.95195,123.47595)"
     style="stroke-width:1.73142" />
  <rect
     x="430.21216"
     y="219.15224"
     width="179.30772"
     height="304.35135"
     fill="#f2f2f2"
     id="rect20"
     style="stroke-width:0.999993" />
  <rect
     x="499.81183"
     y="449.18515"
     width="33.030373"
     height="74.318314"
     fill="#cccccc"
     id="rect22"
     style="stroke-width:0.999993" />
  <polygon
     points="376.515,580.253 352.007,580.253 352.007,600.677 374.473,600.677 376.515,600.677 "
     fill="#3f3d56"
     id="polygon24"
     transform="matrix(0.57758646,0,0,0.57758646,246.95195,123.47595)"
     style="stroke-width:1.73142" />
  <polygon
     points="352.007,617.016 352.007,637.44 376.515,637.44 376.515,617.016 374.473,617.016 "
     fill="#3f3d56"
     id="polygon26"
     transform="matrix(0.57758646,0,0,0.57758646,246.95195,123.47595)"
     style="stroke-width:1.73142" />
  <rect
     x="473.85941"
     y="458.62253"
     width="14.155879"
     height="11.796559"
     fill="#3f3d56"
     id="rect28"
     style="stroke-width:0.999993" />
  <rect
     x="473.85941"
     y="479.85648"
     width="14.155879"
     height="11.796559"
     fill="#3f3d56"
     id="rect30"
     style="stroke-width:0.999993" />
  <polygon
     points="543.991,580.253 519.483,580.253 519.483,600.677 541.949,600.677 543.991,600.677 "
     fill="#3f3d56"
     id="polygon32"
     transform="matrix(0.57758646,0,0,0.57758646,246.95195,123.47595)"
     style="stroke-width:1.73142" />
  <polygon
     points="519.483,617.016 519.483,637.44 543.991,637.44 543.991,617.016 541.949,617.016 "
     fill="#3f3d56"
     id="polygon34"
     transform="matrix(0.57758646,0,0,0.57758646,246.95195,123.47595)"
     style="stroke-width:1.73142" />
  <rect
     x="570.59131"
     y="458.62253"
     width="14.155879"
     height="11.796559"
     fill="#3f3d56"
     id="rect36"
     style="stroke-width:0.999993" />
  <rect
     x="570.59131"
     y="479.85648"
     width="14.155879"
     height="11.796559"
     fill="#3f3d56"
     id="rect38"
     style="stroke-width:0.999993" />
  <polygon
     points="715.552,171.776 691.043,171.776 691.043,192.199 713.51,192.199 715.552,192.199 "
     fill="#3f3d56"
     id="polygon40"
     transform="matrix(0.57758646,0,0,0.57758646,246.95195,123.47595)"
     style="stroke-width:1.73142" />
  <polygon
     points="691.043,208.539 691.043,228.962 715.552,228.962 715.552,208.539 713.51,208.539 "
     fill="#3f3d56"
     id="polygon42"
     transform="matrix(0.57758646,0,0,0.57758646,246.95195,123.47595)"
     style="stroke-width:1.73142" />
  <rect
     x="669.68219"
     y="222.69125"
     width="14.155879"
     height="11.796559"
     fill="#3f3d56"
     id="rect44"
     style="stroke-width:0.999993" />
  <rect
     x="669.68219"
     y="243.92502"
     width="14.155879"
     height="11.796559"
     fill="#3f3d56"
     id="rect46"
     style="stroke-width:0.999993" />
  <polygon
     points="715.552,286.149 691.043,286.149 691.043,306.573 713.51,306.573 715.552,306.573 "
     fill="#3f3d56"
     id="polygon48"
     transform="matrix(0.57758646,0,0,0.57758646,246.95195,123.47595)"
     style="stroke-width:1.73142" />
  <polygon
     points="691.043,322.912 691.043,343.336 715.552,343.336 715.552,322.912 713.51,322.912 "
     fill="#3f3d56"
     id="polygon50"
     transform="matrix(0.57758646,0,0,0.57758646,246.95195,123.47595)"
     style="stroke-width:1.73142" />
  <rect
     x="669.68219"
     y="288.75189"
     width="14.155879"
     height="11.796559"
     fill="#3f3d56"
     id="rect52"
     style="stroke-width:0.999993" />
  <rect
     x="669.68219"
     y="309.98572"
     width="14.155879"
     height="11.796559"
     fill="#3f3d56"
     id="rect54"
     style="stroke-width:0.999993" />
  <polygon
     points="715.552,400.523 691.043,400.523 691.043,420.947 713.51,420.947 715.552,420.947 "
     fill="#3f3d56"
     id="polygon56"
     transform="matrix(0.57758646,0,0,0.57758646,246.95195,123.47595)"
     style="stroke-width:1.73142" />
  <polygon
     points="691.043,437.286 691.043,457.71 715.552,457.71 715.552,437.286 713.51,437.286 "
     fill="#3f3d56"
     id="polygon58"
     transform="matrix(0.57758646,0,0,0.57758646,246.95195,123.47595)"
     style="stroke-width:1.73142" />
  <rect
     x="669.68219"
     y="354.81271"
     width="14.155879"
     height="11.796559"
     fill="#3f3d56"
     id="rect60"
     style="stroke-width:0.999993" />
  <rect
     x="669.68219"
     y="376.04648"
     width="14.155879"
     height="11.796559"
     fill="#3f3d56"
     id="rect62"
     style="stroke-width:0.999993" />
  <polygon
     points="715.552,514.897 691.043,514.897 691.043,535.321 713.51,535.321 715.552,535.321 "
     fill="#3f3d56"
     id="polygon64"
     transform="matrix(0.57758646,0,0,0.57758646,246.95195,123.47595)"
     style="stroke-width:1.73142" />
  <polygon
     points="691.043,551.66 691.043,572.084 715.552,572.084 715.552,551.66 713.51,551.66 "
     fill="#3f3d56"
     id="polygon66"
     transform="matrix(0.57758646,0,0,0.57758646,246.95195,123.47595)"
     style="stroke-width:1.73142" />
  <rect
     x="669.68219"
     y="420.87335"
     width="14.155879"
     height="11.796559"
     fill="#3f3d56"
     id="rect68"
     style="stroke-width:0.999993" />
  <rect
     x="669.68219"
     y="442.10712"
     width="14.155879"
     height="11.796559"
     fill="#3f3d56"
     id="rect70"
     style="stroke-width:0.999993" />
  <rect
     x="450.26633"
     y="234.48772"
     width="136.84012"
     height="28.311758"
     fill="#3f3d56"
     id="rect72"
     style="stroke-width:0.999993" />
  <rect
     x="450.26633"
     y="291.11133"
     width="136.84012"
     height="28.311758"
     fill="#3f3d56"
     id="rect74"
     style="stroke-width:0.999993" />
  <rect
     x="450.26633"
     y="347.73474"
     width="136.84012"
     height="28.311758"
     fill="#3f3d56"
     id="rect76"
     style="stroke-width:0.999993" />
  <rect
     x="450.26633"
     y="404.35818"
     width="136.84012"
     height="28.311758"
     fill="#3f3d56"
     id="rect78"
     style="stroke-width:0.999993" />
  <rect
     y="522.3161"
     width="656.71582"
     height="1.1551727"
     fill="#3f3d56"
     id="rect80"
     x="246.95197"
     style="stroke-width:0.999993" />
  <rect
     x="356.92728"
     y="388.94315"
     width="3.393187"
     height="134.03093"
     fill="#3f3d56"
     id="rect82"
     style="stroke-width:0.999993" />
  <path
     d="m 391.63571,406.02389 c 0.21602,46.8673 -32.7576,85.01349 -32.7576,85.01349 0,0 -33.3239,-37.84066 -33.53985,-84.70791 -0.21597,-46.8673 32.75763,-85.01352 32.75763,-85.01352 0,0 33.32379,37.84065 33.53982,84.70794 z"
     fill="#e76f51"
     id="path84"
     style="stroke-width:0.999993" />
  <path
     d="m 391.63571,406.02389 c 0.21602,46.8673 -32.7576,85.01349 -32.7576,85.01349 0,0 -33.3239,-37.84066 -33.53985,-84.70791 -0.21597,-46.8673 32.75763,-85.01352 32.75763,-85.01352 0,0 33.32379,37.84065 33.53982,84.70794 z"
     opacity="0.1"
     id="path86"
     style="stroke-width:0.999993" />
  <rect
     x="312.8158"
     y="388.94315"
     width="3.393187"
     height="134.03093"
     fill="#3f3d56"
     id="rect88"
     style="stroke-width:0.999993" />
  <path
     d="m 347.52427,406.02389 c 0.21599,46.8673 -32.75765,85.01349 -32.75765,85.01349 0,0 -33.32383,-37.84066 -33.53981,-84.70791 -0.21598,-46.8673 32.75762,-85.01352 32.75762,-85.01352 0,0 33.32381,37.84065 33.53984,84.70794 z"
     fill="#e76f51"
     id="path90"
     style="stroke-width:0.999993" />
  <path
     d="m 793.09138,218.96271 c -26.72881,0.12316 -48.485,0.51805 -48.485,0.51805 0,0 25.86066,-34.25504 48.38799,-21.56379 22.52739,12.69126 48.40557,21.11773 48.40557,21.11773 0,0 -21.57977,-0.19516 -48.30856,-0.072 z"
     fill="#f2f2f2"
     id="path92"
     style="stroke-width:0.999993" />
  <path
     d="m 347.77226,284.80754 c -26.7288,0.1232 -48.48501,0.5181 -48.48501,0.5181 0,0 25.86066,-34.2551 48.38801,-21.56382 22.52736,12.69127 48.40556,21.11771 48.40556,21.11771 0,0 -21.57975,-0.19518 -48.30856,-0.072 z"
     fill="#f2f2f2"
     id="path94"
     style="stroke-width:0.999993" />
  <path
     d="m 444.80678,147.34199 c -26.72881,0.12319 -48.48502,0.51809 -48.48502,0.51809 0,0 25.86067,-34.25508 48.38804,-21.56382 22.52736,12.69126 48.40557,21.11772 48.40557,21.11772 0,0 -21.57981,-0.19518 -48.30859,-0.072 z"
     fill="#f2f2f2"
     id="path96"
     style="stroke-width:0.999993" />
  <rect
     x="844.77295"
     y="388.94315"
     width="3.393187"
     height="134.03093"
     fill="#3f3d56"
     id="rect98"
     style="stroke-width:0.999993" />
  <path
     d="m 879.48127,406.02389 c 0.21592,46.8673 -32.7575,85.01349 -32.7575,85.01349 0,0 -33.32388,-37.84066 -33.5399,-84.70791 -0.21595,-46.8673 32.75803,-85.01352 32.75803,-85.01352 0,0 33.32321,37.84065 33.53937,84.70794 z"
     fill="#e76f51"
     id="path100"
     style="stroke-width:0.999993" />
  <polygon
     points="916.667,547.629 978,547.629 978,611.007 916.667,611.007 916.667,690.74 883.956,690.74 883.956,611.007 824.667,611.007 794,576.251 824.667,547.629 883.956,547.629 883.956,533.318 916.667,533.318 "
     fill="#3f3d56"
     id="polygon102"
     transform="matrix(0.57758646,0,0,0.57758646,246.95195,123.47595)"
     style="stroke-width:1.73142" />
</svg>
