<?xml version="1.0" encoding="UTF-8" standalone="no"?>
<svg
   xmlns:dc="http://purl.org/dc/elements/1.1/"
   xmlns:cc="http://creativecommons.org/ns#"
   xmlns:rdf="http://www.w3.org/1999/02/22-rdf-syntax-ns#"
   xmlns:svg="http://www.w3.org/2000/svg"
   xmlns="http://www.w3.org/2000/svg"
   xmlns:sodipodi="http://sodipodi.sourceforge.net/DTD/sodipodi-0.dtd"
   xmlns:inkscape="http://www.inkscape.org/namespaces/inkscape"
   width="508mm"
   height="285.75mm"
   viewBox="0 0 507.99998 285.75001"
   version="1.1"
   id="svg8"
   inkscape:version="1.0.2 (e86c870879, 2021-01-15)"
   sodipodi:docname="logo.svg"
   inkscape:export-filename="C:\Users\danie\Desktop\logo5.png"
   inkscape:export-xdpi="96.699997"
   inkscape:export-ydpi="96.699997">
  <defs
     id="defs2">
    <rect
       x="255.9373"
       y="275.39452"
       width="27.689123"
       height="80.822305"
       id="rect844" />
    <rect
       x="210.07917"
       y="125.4125"
       width="307.39177"
       height="73.888274"
       id="rect960" />
    <inkscape:path-effect
       effect="bspline"
       id="path-effect948"
       is_visible="true"
       lpeversion="1"
       weight="33.333333"
       steps="2"
       helper_size="0"
       apply_no_weight="true"
       apply_with_weight="true"
       only_selected="false" />
    <inkscape:path-effect
       effect="bspline"
       id="path-effect918"
       is_visible="true"
       lpeversion="1"
       weight="33.333333"
       steps="2"
       helper_size="0"
       apply_no_weight="true"
       apply_with_weight="true"
       only_selected="false" />
    <inkscape:path-effect
       effect="bspline"
       id="path-effect895"
       is_visible="true"
       lpeversion="1"
       weight="33.333333"
       steps="2"
       helper_size="0"
       apply_no_weight="true"
       apply_with_weight="true"
       only_selected="false" />
  </defs>
  <sodipodi:namedview
     id="base"
     pagecolor="#ffffff"
     bordercolor="#666666"
     borderopacity="1.0"
     inkscape:pageopacity="0.0"
     inkscape:pageshadow="2"
     inkscape:zoom="0.35355339"
     inkscape:cx="1588.9203"
     inkscape:cy="692.35295"
     inkscape:document-units="mm"
     inkscape:current-layer="g953"
     inkscape:document-rotation="0"
     showgrid="false"
     units="mm"
     width="1080px"
     showguides="false"
     inkscape:snap-grids="true"
     inkscape:window-width="1920"
     inkscape:window-height="1014"
     inkscape:window-x="-9"
     inkscape:window-y="-9"
     inkscape:window-maximized="1" />
  <metadata
     id="metadata5">
    <rdf:RDF>
      <cc:Work
         rdf:about="">
        <dc:format>image/svg+xml</dc:format>
        <dc:type
           rdf:resource="http://purl.org/dc/dcmitype/StillImage" />
        <dc:title />
      </cc:Work>
    </rdf:RDF>
  </metadata>
  <g
     inkscape:label="Camada 1"
     inkscape:groupmode="layer"
     id="layer1">
    <g
       id="g953"
       transform="matrix(1.7972894,0,0,1.8323762,-86.162583,-24.008583)"
       style="stroke-width:5.62061017;stroke-miterlimit:4;stroke-dasharray:none">
      <path
         style="fill:none;stroke:#FFFFFF;stroke-width:5.62062;stroke-linecap:round;stroke-linejoin:round;stroke-miterlimit:4;stroke-dasharray:none;stroke-opacity:1;paint-order:stroke markers fill"
         d="m 53.987889,89.35261 c 0,0 0.0333,-4.188195 0.0333,-4.188195 -0.01455,-0.999624 -0.02908,-1.998416 0.671523,-3.146717 0.700604,-1.148302 2.114619,-2.442844 4.843257,-4.804774 2.728638,-2.36193 6.770621,-5.790103 9.189746,-7.785955 2.419126,-1.995852 3.214633,-2.55879 4.033081,-2.868895 0.818447,-0.310105 1.658784,-0.367135 2.634158,-0.08678 0.975374,0.280359 2.085178,0.897332 4.766012,3.083787 2.680835,2.186455 6.931451,5.941165 9.60092,8.229208 2.669469,2.288043 3.755925,3.107902 4.35215,4.107553 0.596225,0.999651 0.702901,2.178134 0.745519,4.719672 0.04262,2.541537 0.02114,6.441424 0.02127,9.246413 1.36e-4,2.80499 0.0219,4.507479 -0.128791,5.709219 -0.150687,1.20174 -0.473713,1.90338 -0.816807,2.45321 -0.343094,0.54983 -0.705721,0.94718 -1.11997,1.29316 -0.414249,0.34598 -0.878815,0.63954 -1.38583,0.82645 -0.507015,0.1869 -1.055514,0.26646 -2.19167,0.31866 -1.136156,0.0522 -2.862406,0.077 -6.561395,0.0833 -3.69899,0.006 -9.37151,-0.006 -13.615878,0.002 -4.244368,0.008 -7.055001,0.0376 -8.838586,-0.0358 -1.783584,-0.0734 -2.528006,-0.24884 -3.148511,-0.5693 -0.620505,-0.32046 -1.112684,-0.78455 -1.513219,-1.21912 -0.400535,-0.43456 -0.707871,-0.83811 -0.963255,-1.40764 -0.255384,-0.56952 -0.457352,-1.30304 -0.546252,-2.88953 -0.0889,-1.586498 -0.06482,-4.031078 -0.04076,-6.473352 0,0 -0.02001,-4.596748 -0.02001,-4.596748 z"
         id="path893"
         inkscape:path-effect="#path-effect895"
         inkscape:original-d="m 53.987889,89.35261 0.0333,-4.188195 c 0,0 -0.02886,-1.998419 -0.04364,-2.998873 1.415985,-1.295908 2.829994,-2.590456 4.24467,-3.88603 4.042954,-3.427851 8.084938,-6.856023 12.126737,-10.28519 0.796388,-0.562494 1.591888,-1.125442 2.387167,-1.68927 0.841164,-0.05644 1.681502,-0.113454 2.521092,-0.171096 1.110999,0.617907 2.220801,1.234882 3.330344,1.851438 4.252196,3.756198 8.502821,7.510898 12.754321,11.266314 1.087448,0.820663 2.173879,1.640556 3.259561,2.459722 0.107258,1.180027 0.213862,2.358517 0.320232,3.537686 -0.02248,3.903934 -0.04291,7.803826 -0.06449,11.709544 0.02358,1.704238 0.04341,3.40675 0.06529,5.10838 -0.322401,0.70218 -0.645384,1.40384 -0.969258,2.10531 -0.362388,0.39847 -0.725088,0.79575 -1.088823,1.19307 -0.464893,0.29485 -0.929518,0.58832 -1.395639,0.88192 -0.548211,0.0804 -1.096749,0.15969 -1.64557,0.23868 -1.723559,0.0261 -3.449823,0.05 -5.175051,0.0745 -5.672752,-0.0143 -11.345275,-0.0253 -17.018903,-0.0372 -2.8151,0.0301 -5.625731,0.0595 -8.445284,0.0877 -0.747681,-0.17593 -1.492087,-0.3514 -2.240351,-0.52788 -0.492769,-0.46453 -0.984946,-0.92863 -1.478552,-1.39419 -0.307293,-0.40372 -0.614634,-0.80726 -0.923508,-1.2126 -0.201864,-0.73367 -0.403817,-1.46719 -0.605802,-2.20017 0.02431,-2.439965 0.07217,-7.326822 0.07217,-7.326822 z"
         sodipodi:nodetypes="cccccccccccccccccccccccscc" />
      <path
         style="fill:none;stroke:#FFFFFF;stroke-width:5.62062;stroke-linecap:round;stroke-linejoin:round;stroke-miterlimit:4;stroke-dasharray:none;stroke-opacity:1;paint-order:stroke markers fill"
         d="m 73.00669,89.353609 c 0,0 0.03337,-4.188206 0.03337,-4.188206 -0.01457,-0.999623 -0.02912,-1.998407 0.671465,-3.146705 0.700585,-1.148298 2.114605,-2.442847 4.843247,-4.804771 2.728641,-2.361925 6.770637,-5.790091 9.189756,-7.785933 2.419118,-1.995843 3.214629,-2.558786 4.033076,-2.868908 0.818447,-0.310122 1.65873,-0.36715 2.634167,-0.08679 0.975437,0.280364 2.085355,0.897409 4.766068,3.08379 2.680711,2.186381 6.931421,5.941177 9.600871,8.229185 2.66944,2.288008 3.7559,3.107833 4.35221,4.107514 0.59631,0.99968 0.70301,2.178166 0.74562,4.719716 0.0426,2.541549 0.0211,6.441432 0.0212,9.24643 9e-5,2.804998 0.0218,4.507465 -0.12898,5.709205 -0.15077,1.20175 -0.47389,1.90336 -0.81699,2.45316 -0.34309,0.54979 -0.70575,0.94723 -1.11999,1.2932 -0.41424,0.34597 -0.87889,0.63956 -1.38574,0.82644 -0.50685,0.18688 -1.05557,0.26649 -2.19172,0.31871 -1.13616,0.0522 -2.86244,0.0771 -6.56139,0.0834 -3.69896,0.006 -9.371573,-0.006 -13.615915,0.002 -4.244343,0.008 -7.054986,0.0375 -8.83858,-0.0359 -1.783595,-0.0735 -2.527987,-0.24885 -3.148513,-0.56932 -0.620526,-0.32047 -1.1127,-0.78456 -1.513214,-1.21911 -0.400514,-0.43456 -0.707864,-0.83815 -0.963243,-1.40767 -0.255379,-0.56953 -0.457337,-1.30303 -0.546253,-2.8895 -0.08892,-1.586464 -0.06486,-4.031109 -0.04083,-6.473354 0,0 -0.01967,-4.596767 -0.01967,-4.596767 z"
         id="path893-0"
         inkscape:path-effect="#path-effect948"
         inkscape:original-d="m 73.00669,89.353609 0.03337,-4.188206 c 0,0 -0.02887,-1.998411 -0.0437,-2.99887 1.415961,-1.295903 2.829981,-2.590452 4.24466,-3.886027 4.042951,-3.427846 8.08494,-6.85602 12.126803,-10.285191 0.796299,-0.562492 1.59181,-1.125435 2.387155,-1.689269 0.841113,-0.05649 1.6814,-0.113459 2.521098,-0.171102 1.111025,0.617913 2.220978,1.234894 3.330308,1.851444 4.252066,3.756198 8.502856,7.510904 12.754316,11.266317 1.08739,0.820662 2.17379,1.640562 3.25969,2.459719 0.10703,1.180028 0.2137,2.358517 0.3203,3.537689 -0.0228,3.903934 -0.0432,7.803823 -0.0646,11.709537 0.0236,1.704259 0.0445,3.40674 0.0651,5.10839 -0.32252,0.70217 -0.64557,1.40382 -0.96954,2.10525 -0.3622,0.39852 -0.725,0.79583 -1.08871,1.19311 -0.46492,0.29486 -0.92964,0.58834 -1.39577,0.88192 -0.54786,0.0805 -1.09664,0.15966 -1.6454,0.23871 -1.72361,0.0261 -3.4499,0.0502 -5.17514,0.0746 -5.672676,-0.0142 -11.345291,-0.0255 -17.018883,-0.0372 -2.815085,0.0302 -5.625729,0.0592 -8.445288,0.0876 -0.74768,-0.17598 -1.49207,-0.35138 -2.240345,-0.52786 -0.492763,-0.4646 -0.98494,-0.92869 -1.478557,-1.3942 -0.30729,-0.4037 -0.614635,-0.80729 -0.923506,-1.21267 -0.201845,-0.73364 -0.403809,-1.46714 -0.605786,-2.20019 0.02425,-2.439842 0.0721,-7.326734 0.0721,-7.326734 z"
         sodipodi:nodetypes="cccccccccccccccccccccccscc" />
    </g>
    <text
       xml:space="preserve"
       id="text958"
       style="font-style:normal;font-weight:normal;font-size:51.3364px;line-height:1.25;font-family:sans-serif;letter-spacing:0px;word-spacing:0px;white-space:pre;shape-inside:url(#rect960);fill:#FFFFFF;fill-opacity:1;stroke:none;stroke-width:20.1455;stroke-miterlimit:4;stroke-dasharray:none;"
       transform="matrix(1.3433048,0,0,1.3276701,-146.52112,-55.384391)"
       inkscape:export-xdpi="96"
       inkscape:export-ydpi="96"><tspan
         x="210.08008"
         y="172.24786"><tspan
           style="font-size:51.3364px;fill:#FFFFFF;fill-opacity:1;stroke-width:20.1455;stroke-miterlimit:4;stroke-dasharray:none">UniHouses</tspan></tspan></text>
    <text
       xml:space="preserve"
       id="text842"
       style="fill:black;fill-opacity:1;stroke:none;font-family:sans-serif;font-style:normal;font-weight:normal;font-size:10.58333333px;line-height:1.25;letter-spacing:0px;word-spacing:0px;white-space:pre;shape-inside:url(#rect844);" />
  </g>
</svg>
