<?xml version="1.0" encoding="UTF-8" standalone="no"?>
<svg
   xmlns:dc="http://purl.org/dc/elements/1.1/"
   xmlns:cc="http://creativecommons.org/ns#"
   xmlns:rdf="http://www.w3.org/1999/02/22-rdf-syntax-ns#"
   xmlns:svg="http://www.w3.org/2000/svg"
   xmlns="http://www.w3.org/2000/svg"
   xmlns:sodipodi="http://sodipodi.sourceforge.net/DTD/sodipodi-0.dtd"
   xmlns:inkscape="http://www.inkscape.org/namespaces/inkscape"
   width="1900"
   height="350"
   viewBox="0 0 502.70827 92.604173"
   version="1.1"
   id="svg872"
   inkscape:version="1.0.2 (e86c870879, 2021-01-15)"
   sodipodi:docname="logo_navbar_white.svg">
  <defs
     id="defs866">
    <inkscape:path-effect
       effect="bspline"
       id="path-effect895"
       is_visible="true"
       lpeversion="1"
       weight="33.333333"
       steps="2"
       helper_size="0"
       apply_no_weight="true"
       apply_with_weight="true"
       only_selected="false" />
    <inkscape:path-effect
       effect="bspline"
       id="path-effect948"
       is_visible="true"
       lpeversion="1"
       weight="33.333333"
       steps="2"
       helper_size="0"
       apply_no_weight="true"
       apply_with_weight="true"
       only_selected="false" />
    <rect
       x="210.07916"
       y="125.4125"
       width="307.39178"
       height="73.888275"
       id="rect960" />
    <rect
       x="210.07916"
       y="125.4125"
       width="307.39178"
       height="73.888275"
       id="rect1479" />
  </defs>
  <sodipodi:namedview
     id="base"
     pagecolor="#ffffff"
     bordercolor="#666666"
     borderopacity="1.0"
     inkscape:pageopacity="0.0"
     inkscape:pageshadow="2"
     inkscape:zoom="0.49497475"
     inkscape:cx="1015.5792"
     inkscape:cy="-50.262311"
     inkscape:document-units="mm"
     inkscape:current-layer="g846"
     inkscape:document-rotation="0"
     showgrid="false"
     units="px"
     width="200px"
     inkscape:window-width="1920"
     inkscape:window-height="1014"
     inkscape:window-x="-9"
     inkscape:window-y="-9"
     inkscape:window-maximized="1" />
  <metadata
     id="metadata869">
    <rdf:RDF>
      <cc:Work
         rdf:about="">
        <dc:format>image/svg+xml</dc:format>
        <dc:type
           rdf:resource="http://purl.org/dc/dcmitype/StillImage" />
        <dc:title />
      </cc:Work>
    </rdf:RDF>
  </metadata>
  <g
     inkscape:label="Camada 1"
     inkscape:groupmode="layer"
     id="layer1">
    <g
       id="g1528"
       transform="translate(-0.4461484,5.1117227)">
      <g
         id="g846"
         transform="translate(0,-4.326453)">
        <path
           style="fill:none;stroke:#ffffff;stroke-width:10.2;stroke-linecap:round;stroke-linejoin:round;stroke-miterlimit:4;stroke-dasharray:none;stroke-opacity:1;paint-order:stroke markers fill"
           d="m 11.718306,50.865481 c 0,0 0.0598,-7.674349 0.0598,-7.674349 -0.02613,-1.831688 -0.05224,-3.66185 1.206944,-5.765965 1.259188,-2.104115 3.80058,-4.476202 8.704727,-8.804143 4.904148,-4.327941 12.168757,-10.609643 16.516624,-14.266796 4.347867,-3.657153 5.777628,-4.6886703 7.248626,-5.2569066 1.470997,-0.5682363 2.981325,-0.6727369 4.734358,-0.1590112 1.753033,0.5137258 3.747674,1.6442528 8.565906,5.6506588 4.818232,4.006406 12.457821,10.886451 17.255628,15.079005 4.797807,4.192553 6.750486,5.694843 7.822076,7.526578 1.071591,1.831736 1.26332,3.991161 1.339915,8.648215 0.0766,4.657054 0.03799,11.803113 0.03823,16.942909 2.43e-4,5.139796 0.03935,8.259395 -0.231482,10.461443 -0.270831,2.202048 -0.851402,3.487721 -1.468047,4.49522 -0.616646,1.0075 -1.268393,1.735588 -2.012921,2.369551 -0.744527,0.633963 -1.579486,1.171882 -2.49073,1.514355 -0.911243,0.342472 -1.89706,0.48825 -3.939057,0.583903 -2.041996,0.09565 -5.14457,0.141189 -11.792724,0.152582 -6.648155,0.01139 -16.843309,-0.01133 -24.471666,0.0041 -7.628358,0.01542 -12.679882,0.0689 -15.885496,-0.06567 -3.205614,-0.134568 -4.543563,-0.455975 -5.658788,-1.043171 -1.115224,-0.587195 -1.999817,-1.437598 -2.719696,-2.233888 -0.719878,-0.796289 -1.27225,-1.535732 -1.731247,-2.579321 -0.458998,-1.043588 -0.821994,-2.387666 -0.981771,-5.294719 -0.159777,-2.907054 -0.1165,-7.386444 -0.07326,-11.861609 0,0 -0.03595,-8.422967 -0.03595,-8.422967 z"
           id="path893"
           inkscape:path-effect="#path-effect895"
           inkscape:original-d="m 11.718306,50.865481 0.0598,-7.674349 c 0,0 -0.0519,-3.661855 -0.0784,-5.495063 2.54493,-2.374591 5.08631,-4.74669 7.6289,-7.120669 7.26636,-6.281113 14.53097,-12.562814 21.79525,-18.846339 1.43134,-1.0307 2.86109,-2.0622327 4.29043,-3.0953777 1.51182,-0.103419 3.02215,-0.20789 4.53113,-0.313512 1.99679,1.132238 3.99143,2.2627677 5.9856,3.3925307 7.64242,6.882769 15.28203,13.762792 22.9232,20.644127 1.95446,1.503763 3.90709,3.006116 5.858384,4.507136 0.19277,2.162253 0.38437,4.32169 0.57555,6.482372 -0.0404,7.153475 -0.0771,14.299544 -0.11591,21.456289 0.0424,3.122805 0.078,6.242448 0.11734,9.360474 -0.57944,1.286658 -1.15994,2.572363 -1.74203,3.85772 -0.65132,0.730147 -1.303204,1.458113 -1.956934,2.186153 -0.83555,0.540276 -1.67062,1.078023 -2.50837,1.616009 -0.98529,0.147323 -1.97118,0.292612 -2.95757,0.437352 -3.09773,0.04783 -6.20033,0.09162 -9.30106,0.136512 -10.19558,-0.0262 -20.39074,-0.04636 -30.58789,-0.06817 -5.05955,0.05515 -10.11107,0.109027 -15.17862,0.1607 -1.3438,-0.32237 -2.68172,-0.643897 -4.02656,-0.967275 -0.88565,-0.851194 -1.77024,-1.7016 -2.65739,-2.554681 -0.55229,-0.739767 -1.10467,-1.479204 -1.65981,-2.221939 -0.36281,-1.344359 -0.72578,-2.688444 -1.0888,-4.031539 0.0437,-4.470934 0.12971,-13.425494 0.12971,-13.425494 z"
           sodipodi:nodetypes="cccccccccccccccccccccccscc" />
        <path
           style="fill:none;stroke:#ffffff;stroke-width:10.2;stroke-linecap:round;stroke-linejoin:round;stroke-miterlimit:4;stroke-dasharray:none;stroke-opacity:1;paint-order:stroke markers fill"
           d="m 45.900596,50.865368 c 0,0 0.06,-7.674369 0.06,-7.674369 -0.0262,-1.831686 -0.05238,-3.661834 1.206766,-5.765946 1.259145,-2.104111 3.800548,-4.476209 8.704698,-8.804137 4.904151,-4.327927 12.168785,-10.609617 16.516642,-14.266754 4.347857,-3.657137 5.777619,-4.6886585 7.248614,-5.2569276 1.470995,-0.568269 2.981227,-0.6727667 4.734379,-0.1590313 1.753152,0.5137354 3.747988,1.6443899 8.566006,5.6506629 4.818018,4.006272 12.457769,10.886468 17.255539,15.078961 4.79777,4.192493 6.75045,5.694727 7.82219,7.526515 1.07173,1.831787 1.2635,3.991217 1.34009,8.648291 0.0766,4.657074 0.0379,11.803127 0.0381,16.942938 1.5e-4,5.139811 0.0391,8.259379 -0.23183,10.46143 -0.27098,2.202051 -0.85172,3.487681 -1.46837,4.495112 -0.61665,1.007431 -1.26845,1.735681 -2.01295,2.369631 -0.74451,0.633949 -1.57962,1.171917 -2.49057,1.514344 -0.91096,0.342426 -1.89716,0.488294 -3.93916,0.583987 -2.04199,0.09569 -5.14461,0.141291 -11.79271,0.152715 -6.648097,0.01142 -16.843427,-0.0113 -24.47174,0.0041 -7.628313,0.01539 -12.67985,0.06881 -15.885484,-0.06579 -3.205633,-0.134596 -4.543517,-0.455977 -5.658785,-1.0432 -1.115268,-0.587223 -1.999843,-1.437615 -2.719684,-2.233885 -0.71984,-0.79627 -1.272239,-1.535792 -1.731228,-2.579381 -0.458988,-1.043588 -0.821964,-2.38764 -0.981773,-5.29464 -0.159809,-2.907 -0.116573,-7.38651 -0.07338,-11.861621 0,0 -0.03533,-8.423001 -0.03533,-8.423001 z"
           id="path893-0"
           inkscape:path-effect="#path-effect948"
           inkscape:original-d="m 45.900596,50.865368 0.06,-7.674369 c 0,0 -0.0519,-3.661841 -0.0786,-5.495058 2.5449,-2.374582 5.0863,-4.746683 7.62889,-7.120664 7.26635,-6.281103 14.53097,-12.562808 21.79537,-18.84634 1.43118,-1.030697 2.86094,-2.0622202 4.29041,-3.0953762 1.51172,-0.103511 3.02196,-0.2079 4.531144,-0.313524 1.99684,1.132249 3.99174,2.2627912 5.98553,3.3925422 7.64219,6.882769 15.28209,13.762803 22.9232,20.644133 1.95435,1.503761 3.90693,3.006127 5.8586,4.50713 0.19237,2.162256 0.38408,4.321691 0.57567,6.482377 -0.041,7.153476 -0.0776,14.29954 -0.1161,21.456277 0.0424,3.122844 0.08,6.242429 0.117,9.360492 -0.57966,1.28664 -1.16027,2.572327 -1.74254,3.85761 -0.65098,0.730239 -1.30304,1.45826 -1.95673,2.186227 -0.83559,0.540294 -1.67083,1.07806 -2.5086,1.616009 -0.98466,0.147506 -1.97098,0.292557 -2.95726,0.437406 -3.09783,0.04782 -6.20047,0.09199 -9.30122,0.136696 -10.19545,-0.02602 -20.390784,-0.04673 -30.587864,-0.06817 -5.05953,0.05534 -10.11107,0.108477 -15.17863,0.160516 -1.3438,-0.322461 -2.68168,-0.64386 -4.02655,-0.967238 -0.88564,-0.851322 -1.77022,-1.701709 -2.65739,-2.554699 -0.55229,-0.73973 -1.10468,-1.479259 -1.65981,-2.222067 -0.36277,-1.344305 -0.72576,-2.688353 -1.08877,-4.031576 0.0436,-4.470708 0.12958,-13.425333 0.12958,-13.425333 z"
           sodipodi:nodetypes="cccccccccccccccccccccccscc" />
        <text
           xml:space="preserve"
           id="text958"
           style="font-style:normal;font-weight:normal;font-size:55.4738px;line-height:1.25;font-family:sans-serif;letter-spacing:0px;word-spacing:0px;white-space:pre;shape-inside:url(#rect960);fill:#ffffff;fill-opacity:1;stroke:none;stroke-width:105.21;stroke-miterlimit:4;stroke-dasharray:none;"
           transform="matrix(1.3433048,0,0,1.3276701,-145.67209,-153.10884)"
           inkscape:export-xdpi="96"
           inkscape:export-ydpi="96"><tspan
             x="210.08008"
             y="177.57338"><tspan
               style="font-style:normal;font-variant:normal;font-weight:normal;font-stretch:normal;font-size:55.4738px;font-family:Helvetica;-inkscape-font-specification:Helvetica;fill:#ffffff;fill-opacity:1;stroke:none;stroke-width:105.21;stroke-miterlimit:4;stroke-dasharray:none">UniHouses</tspan></tspan></text>
      </g>
    </g>
  </g>
</svg>
