<?xml version="1.0" encoding="iso-8859-1"?>
<!-- Generator: Adobe Illustrator 19.0.0, SVG Export Plug-In . SVG Version: 6.00 Build 0)  -->
<svg version="1.1" id="Capa_1" xmlns="http://www.w3.org/2000/svg" xmlns:xlink="http://www.w3.org/1999/xlink" x="0px" y="0px"
	 viewBox="0 0 512.042 512.042" style="enable-background:new 0 0 512.042 512.042;" xml:space="preserve">
<g>
	<g>
		<g>
			<path d="M505.461,179.082l-73.44-53.76v-45.28c0-8.837-7.163-16-16-16h-67.52l-83.04-60.96c-5.623-4.109-13.257-4.109-18.88,0
				l-83.04,60.96h-67.52c-8.837,0-16,7.163-16,16v45.28l-73.44,53.76c-4.135,3.021-6.573,7.839-6.56,12.96v272
				c0,26.51,21.49,48,48,48h416c26.51,0,48-21.49,48-48v-272C512.034,186.921,509.595,182.103,505.461,179.082z M432.021,165.002
				l35.2,25.76l-35.2,20.96V165.002z M256.021,35.882l38.4,28.16h-76.8L256.021,35.882z M112.021,96.042h288v134.88l-144,86.4
				l-144-86.4V96.042z M80.021,165.002v46.88l-35.2-21.12L80.021,165.002z M32.021,457.482v-237.12l148.16,88.96L32.021,457.482z
				 M54.581,480.042l153.44-153.92l39.36,23.52c4.95,2.858,11.05,2.858,16,0l40.64-23.52l153.44,153.92H54.581z M480.021,457.482
				l-148.16-148.16l148.16-88.96V457.482z"/>
			<rect x="160.021" y="144.042" width="192" height="32"/>
			<rect x="192.021" y="208.042" width="128" height="32"/>
		</g>
	</g>
</g>
<g>
</g>
<g>
</g>
<g>
</g>
<g>
</g>
<g>
</g>
<g>
</g>
<g>
</g>
<g>
</g>
<g>
</g>
<g>
</g>
<g>
</g>
<g>
</g>
<g>
</g>
<g>
</g>
<g>
</g>
</svg>
