<svg width="639" height="299" viewBox="0 0 639 299" fill="none" xmlns="http://www.w3.org/2000/svg">
<g id="undraw_buy_house_560d 1" clip-path="url(#clip0)">
<path id="Vector" d="M70.7553 297.529L69.6587 297.282C81.8856 242.82 112.613 193.364 156.18 158.023C189.118 131.346 228.293 113.504 270.017 106.177C311.74 98.8508 354.638 102.281 394.672 116.144C434.707 130.007 470.56 153.848 498.856 185.421C527.152 216.994 546.96 255.26 556.415 296.618L555.319 296.867C529.437 183.042 429.838 103.544 313.112 103.544C197.916 103.544 95.9901 185.127 70.7553 297.529Z" fill="#3F3D56"/>
<path id="Vector_2" d="M590.949 271.604L592.635 283.988L580.833 285.114L582.519 269.915L590.949 271.604Z" fill="#A0616A"/>
<path id="Vector_3" d="M535.31 101.605C535.31 101.605 536.434 116.804 536.434 117.367C536.434 117.93 528.566 156.771 528.566 156.771C528.566 156.771 517.326 178.161 528.566 177.598C539.806 177.035 536.434 157.333 536.434 157.333L548.236 124.685L543.178 101.605H535.31Z" fill="#A0616A"/>
<path id="Vector_4" d="M553.856 271.604L552.17 283.988L563.972 285.114L562.286 269.915L553.856 271.604Z" fill="#A0616A"/>
<path id="Vector_5" d="M540.93 155.645L538.12 159.585C538.12 159.585 536.434 176.472 538.12 182.101C539.806 187.731 543.178 213.624 543.178 215.313C543.178 217.002 543.74 218.128 543.178 218.691C542.616 219.254 540.93 219.254 542.054 220.379C543.178 221.505 543.178 224.883 543.178 224.883V227.697L550.484 269.353C550.484 269.353 545.988 274.419 549.36 274.419C552.732 274.419 565.096 274.419 564.534 268.79L563.41 268.227C563.41 268.227 561.724 231.075 562.286 229.386C562.848 227.697 562.286 224.32 562.286 224.32C562.286 224.32 561.162 222.631 562.286 222.068C563.41 221.505 563.41 217.002 563.41 217.002L568.468 182.664C568.468 182.664 572.964 205.744 575.774 207.995C578.584 210.247 578.022 215.876 578.022 215.876L580.27 265.412C580.27 265.412 578.022 271.041 580.27 272.167C582.518 273.293 592.072 277.233 592.634 271.604C593.196 265.975 596.007 217.002 596.007 214.75C596.007 212.499 595.445 211.373 596.007 209.684C596.569 207.995 595.445 207.995 596.007 207.995C596.569 207.995 594.883 206.307 594.883 205.181V177.598C594.883 177.598 595.445 171.969 596.007 170.843C596.569 169.717 595.445 168.592 596.007 166.903C596.569 165.214 594.883 159.585 594.883 159.585L569.592 152.83L540.93 155.645Z" fill="#2F2E41"/>
<path id="Vector_6" d="M560.6 281.737C560.6 281.737 563.41 278.922 559.476 278.922C556.951 278.974 554.463 279.549 552.17 280.611L549.36 290.743C549.36 290.743 537.839 300.031 550.765 298.905C563.691 297.779 561.724 298.624 561.724 298.624C561.724 298.624 565.658 297.498 566.22 296.372C566.782 295.246 565.096 278.922 565.096 278.922C565.096 278.922 563.41 283.425 560.6 281.737Z" fill="#2F2E41"/>
<path id="Vector_7" d="M584.767 281.737C584.767 281.737 581.957 278.922 585.891 278.922C588.416 278.974 590.904 279.549 593.197 280.611L596.007 290.743C596.007 290.743 607.528 300.031 594.602 298.905C581.676 297.779 581.957 298.624 581.957 298.624C581.957 298.624 578.023 297.498 577.461 296.372C576.899 295.246 580.271 278.922 580.271 278.922C580.271 278.922 581.957 283.425 584.767 281.737Z" fill="#2F2E41"/>
<path id="Vector_8" d="M165.816 99.8782H160.813V297.827H165.816V99.8782Z" fill="#3F3D56"/>
<path id="Vector_9" d="M211.991 125.105C212.309 194.322 163.689 250.66 163.689 250.66C163.689 250.66 114.552 194.774 114.234 125.556C113.915 56.3379 162.536 -7.62939e-06 162.536 -7.62939e-06C162.536 -7.62939e-06 211.672 55.8866 211.991 125.105Z" fill="#E9C46A"/>
<path id="Vector_10" d="M513.954 215.876H126.732V298.061H513.954V215.876Z" fill="#F2F2F2"/>
<path id="Vector_11" d="M114.368 224.883L156.519 136.506H493.16L524.632 224.883H114.368Z" fill="#3F3D56"/>
<path id="Vector_12" d="M375.7 142.135H219.463V193.923H375.7V142.135Z" fill="#F2F2F2"/>
<path id="Vector_13" d="M229.579 99.9166L204.851 151.704H390.313L375.701 99.9166H229.579Z" fill="#3F3D56"/>
<path id="Vector_14" d="M356.592 232.2H233.232V298.061H356.592V232.2Z" fill="#CCCCCC"/>
<path id="Vector_15" d="M207.661 234.452H141.906V298.061H207.661V234.452Z" fill="#CCCCCC"/>
<path id="Vector_16" d="M411.95 238.393H377.948V298.061H411.95V238.393Z" fill="#3F3D56"/>
<path id="Vector_17" d="M639 297.78H0V298.905H639V297.78Z" fill="#3F3D56"/>
<path id="Vector_18" d="M104.409 167.217H101.107V297.843H104.409V167.217Z" fill="#3F3D56"/>
<path id="Vector_19" d="M134.88 183.864C135.09 229.541 103.006 266.717 103.006 266.717C103.006 266.717 70.5808 229.838 70.3707 184.162C70.1605 138.486 102.245 101.309 102.245 101.309C102.245 101.309 134.669 138.188 134.88 183.864Z" fill="#E9C46A"/>
<path id="Vector_20" opacity="0.1" d="M134.88 183.864C135.09 229.541 103.006 266.717 103.006 266.717C103.006 266.717 70.5808 229.838 70.3707 184.162C70.1605 138.486 102.245 101.309 102.245 101.309C102.245 101.309 134.669 138.188 134.88 183.864Z" fill="black"/>
<path id="Vector_21" d="M61.4877 167.217H58.186V297.843H61.4877V167.217Z" fill="#3F3D56"/>
<path id="Vector_22" d="M91.9583 183.864C92.1684 229.541 60.0843 266.717 60.0843 266.717C60.0843 266.717 27.6594 229.838 27.4493 184.162C27.2391 138.486 59.3232 101.309 59.3232 101.309C59.3232 101.309 91.7481 138.188 91.9583 183.864Z" fill="#E9C46A"/>
<path id="Vector_23" d="M465.34 241.77H448.761V257.25H465.34V241.77Z" fill="#3F3D56"/>
<path id="Vector_24" d="M487.54 241.77H470.96V257.25H487.54V241.77Z" fill="#3F3D56"/>
<path id="Vector_25" d="M465.34 262.879H448.761V278.922H465.34V262.879Z" fill="#3F3D56"/>
<path id="Vector_26" d="M487.54 262.879H470.96V278.922H487.54V262.879Z" fill="#3F3D56"/>
<path id="Vector_27" d="M246.769 156.305H233.794V168.42H246.769V156.305Z" fill="#3F3D56"/>
<path id="Vector_28" d="M264.143 156.305H251.167V168.42H264.143V156.305Z" fill="#3F3D56"/>
<path id="Vector_29" d="M246.769 172.826H233.794V185.381H246.769V172.826Z" fill="#3F3D56"/>
<path id="Vector_30" d="M264.143 172.826H251.167V185.381H264.143V172.826Z" fill="#3F3D56"/>
<path id="Vector_31" d="M343.996 156.305H331.021V168.42H343.996V156.305Z" fill="#3F3D56"/>
<path id="Vector_32" d="M361.37 156.305H348.395V168.42H361.37V156.305Z" fill="#3F3D56"/>
<path id="Vector_33" d="M343.996 172.826H331.021V185.381H343.996V172.826Z" fill="#3F3D56"/>
<path id="Vector_34" d="M361.37 172.826H348.395V185.381H361.37V172.826Z" fill="#3F3D56"/>
<path id="Vector_35" d="M295.663 156.305H282.688V168.42H295.663V156.305Z" fill="#3F3D56"/>
<path id="Vector_36" d="M313.037 156.305H300.062V168.42H313.037V156.305Z" fill="#3F3D56"/>
<path id="Vector_37" d="M295.663 172.826H282.688V185.381H295.663V172.826Z" fill="#3F3D56"/>
<path id="Vector_38" d="M313.037 172.826H300.062V185.381H313.037V172.826Z" fill="#3F3D56"/>
<path id="Vector_39" d="M393.705 244.438H385.536V252.065H393.705V244.438Z" fill="#F2F2F2"/>
<path id="Vector_40" d="M404.644 244.438H396.474V252.065H404.644V244.438Z" fill="#F2F2F2"/>
<path id="Vector_41" d="M393.705 254.839H385.536V262.744H393.705V254.839Z" fill="#F2F2F2"/>
<path id="Vector_42" d="M404.644 254.839H396.474V262.744H404.644V254.839Z" fill="#F2F2F2"/>
<path id="Vector_43" d="M407.454 274.7C408.695 274.7 409.702 273.692 409.702 272.449C409.702 271.205 408.695 270.197 407.454 270.197C406.212 270.197 405.206 271.205 405.206 272.449C405.206 273.692 406.212 274.7 407.454 274.7Z" fill="#F2F2F2"/>
<path id="Vector_44" d="M356.873 239.237H233.232V240.363H356.873V239.237Z" fill="#F2F2F2"/>
<path id="Vector_45" d="M356.873 244.303H233.232V245.429H356.873V244.303Z" fill="#F2F2F2"/>
<path id="Vector_46" d="M356.873 249.369H233.232V250.495H356.873V249.369Z" fill="#F2F2F2"/>
<path id="Vector_47" d="M356.873 254.435H233.232V255.561H356.873V254.435Z" fill="#F2F2F2"/>
<path id="Vector_48" d="M356.873 259.502H233.232V260.627H356.873V259.502Z" fill="#F2F2F2"/>
<path id="Vector_49" d="M356.873 264.568H233.232V265.694H356.873V264.568Z" fill="#F2F2F2"/>
<path id="Vector_50" d="M356.873 269.634H233.232V270.76H356.873V269.634Z" fill="#F2F2F2"/>
<path id="Vector_51" d="M356.873 274.7H233.232V275.826H356.873V274.7Z" fill="#F2F2F2"/>
<path id="Vector_52" d="M356.873 279.766H233.232V280.892H356.873V279.766Z" fill="#F2F2F2"/>
<path id="Vector_53" d="M356.873 284.833H233.232V285.958H356.873V284.833Z" fill="#F2F2F2"/>
<path id="Vector_54" d="M356.873 289.899H233.232V291.025H356.873V289.899Z" fill="#F2F2F2"/>
<path id="Vector_55" d="M207.661 239.237H141.906V240.363H207.661V239.237Z" fill="#F2F2F2"/>
<path id="Vector_56" d="M207.661 244.303H141.906V245.429H207.661V244.303Z" fill="#F2F2F2"/>
<path id="Vector_57" d="M207.661 249.369H141.906V250.495H207.661V249.369Z" fill="#F2F2F2"/>
<path id="Vector_58" d="M207.661 254.435H141.906V255.561H207.661V254.435Z" fill="#F2F2F2"/>
<path id="Vector_59" d="M207.661 259.502H141.906V260.627H207.661V259.502Z" fill="#F2F2F2"/>
<path id="Vector_60" d="M207.661 264.568H141.906V265.694H207.661V264.568Z" fill="#F2F2F2"/>
<path id="Vector_61" d="M207.661 269.634H141.906V270.76H207.661V269.634Z" fill="#F2F2F2"/>
<path id="Vector_62" d="M207.661 274.7H141.906V275.826H207.661V274.7Z" fill="#F2F2F2"/>
<path id="Vector_63" d="M207.661 279.766H141.906V280.892H207.661V279.766Z" fill="#F2F2F2"/>
<path id="Vector_64" d="M207.661 284.833H141.906V285.958H207.661V284.833Z" fill="#F2F2F2"/>
<path id="Vector_65" d="M207.661 289.899H141.906V291.025H207.661V289.899Z" fill="#F2F2F2"/>
<path id="Vector_66" d="M492.879 181.82C518.02 181.82 538.401 161.406 538.401 136.224C538.401 111.042 518.02 90.6285 492.879 90.6285C467.738 90.6285 447.356 111.042 447.356 136.224C447.356 161.406 467.738 181.82 492.879 181.82Z" fill="#E9C46A"/>
<path id="Vector_67" d="M521.541 131.721H497.375V107.516H488.383V131.721H464.216V140.728H488.383V164.933H497.375V140.728H521.541V131.721Z" fill="white"/>
<path id="Vector_68" d="M548.236 57.1354C556.306 57.1354 562.848 50.5828 562.848 42.4997C562.848 34.4167 556.306 27.8641 548.236 27.8641C540.166 27.8641 533.624 34.4167 533.624 42.4997C533.624 50.5828 540.166 57.1354 548.236 57.1354Z" fill="#A0616A"/>
<path id="Vector_69" d="M543.178 53.195C543.178 53.195 545.426 64.4532 545.426 66.142C545.426 67.8307 554.98 72.8969 554.98 72.8969L565.658 59.387C565.658 59.387 558.914 49.8176 558.914 47.5659L543.178 53.195Z" fill="#A0616A"/>
<path id="Vector_70" d="M551.608 67.8307C551.608 67.8307 546.71 66.5248 545.225 64.3632C545.225 64.3632 529.69 79.6518 529.69 82.4664L542.054 104.42C542.054 104.42 542.054 112.301 543.178 112.863C544.302 113.426 543.178 112.863 543.178 115.115C543.178 117.367 539.806 132.002 540.93 134.254C542.054 136.506 543.178 134.817 542.054 138.194C540.93 141.572 538.12 159.585 538.12 159.585C538.12 159.585 548.236 156.208 562.848 161.837C577.46 167.466 594.883 159.585 594.883 159.585C594.883 159.585 590.387 149.453 591.511 146.075C592.635 142.698 588.701 136.506 588.701 136.506L585.89 84.718C585.89 84.718 589.825 61.6387 587.014 60.5129L581.394 58.2612L563.397 56.0457C563.397 56.0457 558.914 67.2678 551.608 67.8307Z" fill="#D0CDE1"/>
<path id="Vector_71" d="M535.31 78.526L529.69 82.4664C529.69 82.4664 526.88 90.91 529.69 94.8504C532.5 98.7908 533.624 104.42 533.624 104.42L544.864 103.294L535.31 78.526Z" fill="#D0CDE1"/>
<path id="Vector_72" d="M576.899 83.5922C576.899 83.5922 573.644 91.9743 574.324 100.268C574.448 101.753 574.947 103.181 575.775 104.42L535.903 123.379C535.903 123.379 517.888 125.248 522.384 133.128C526.88 141.009 543.178 129.188 543.178 129.188C543.178 129.188 585.891 122.996 589.263 116.804C592.635 110.612 594.883 84.718 594.883 84.718L576.899 83.5922Z" fill="#A0616A"/>
<path id="Vector_73" d="M537.08 27.0323L534.545 26.016C534.545 26.016 539.845 20.1719 547.219 20.6801L545.145 18.3932C545.145 18.3932 550.214 16.3605 554.823 21.6964C557.245 24.5014 560.048 27.7984 561.795 31.5126H564.51L563.377 34.0111L567.342 36.5097L563.272 36.0609C563.658 38.2179 563.526 40.4359 562.887 42.5318L562.996 44.5067C562.996 44.5067 558.279 37.1959 558.279 36.1795V38.7204C558.279 38.7204 555.744 36.4336 555.744 34.9091L554.362 36.6878L553.67 33.8927L545.145 36.6878L546.527 34.4009L541.228 35.1632L543.302 32.3682C543.302 32.3682 537.311 35.6714 537.08 38.4664C536.85 41.2614 533.854 44.8186 533.854 44.8186L532.472 42.2777C532.472 42.2777 530.398 30.8437 537.08 27.0323Z" fill="#2F2E41"/>
<path id="Vector_74" d="M578.584 60.5129H587.015C587.015 60.5129 593.197 61.6387 594.883 72.8969C596.569 84.1551 598.255 86.9696 596.569 86.9696C594.883 86.9696 574.65 86.4067 574.65 85.8438C574.65 85.2809 578.584 60.5129 578.584 60.5129Z" fill="#D0CDE1"/>
</g>
<defs>
<clipPath id="clip0">
<rect width="639" height="299" fill="white"/>
</clipPath>
</defs>
</svg>
