<svg xmlns="http://www.w3.org/2000/svg" width="38" height="42" fill="none" viewBox="0 0 38 42">
  <path fill="#E76F51" d="M28.92 11.123L17.19 24.09c-.696.769-1.825.769-2.52 0l-.84-.928c-.696-.769-.696-2.016 0-2.784l.008-.01c-2.526-3.298-2.61-8.116-.252-11.515a5.336 5.336 0 00-3.065-.977c-3.182 0-5.771 2.861-5.771 6.379v25.121H0V14.254C0 7.84 4.72 2.625 10.521 2.625c2.741 0 5.24 1.165 7.115 3.07 2.664-.945 5.678-.37 7.917 1.725l.008-.01c.695-.768 1.823-.768 2.519 0l.84.93c.695.768.695 2.015 0 2.783zm-.42 5.94c0 .724-.532 1.312-1.188 1.312-.655 0-1.187-.588-1.187-1.313 0-.724.532-1.312 1.188-1.312.655 0 1.187.588 1.187 1.313zm2.375 0c0-.725.532-1.313 1.188-1.313.655 0 1.187.588 1.187 1.313 0 .724-.532 1.312-1.188 1.312-.655 0-1.187-.588-1.187-1.313zm7.125 0c0 .724-.532 1.312-1.188 1.312-.655 0-1.187-.588-1.187-1.313 0-.724.532-1.312 1.188-1.312.655 0 1.187.588 1.187 1.313zm-11.875 2.625c0 .724-.532 1.312-1.188 1.312-.655 0-1.187-.588-1.187-1.313 0-.724.532-1.312 1.188-1.312.655 0 1.187.588 1.187 1.313zm3.563-1.313c.655 0 1.187.588 1.187 1.313 0 .724-.532 1.312-1.188 1.312-.655 0-1.187-.588-1.187-1.313 0-.724.532-1.312 1.188-1.312zm5.937 1.313c0 .724-.532 1.312-1.188 1.312-.655 0-1.187-.588-1.187-1.313 0-.724.532-1.312 1.188-1.312.655 0 1.187.588 1.187 1.313zM23.75 22.313c0 .724-.532 1.312-1.188 1.312-.655 0-1.187-.588-1.187-1.313 0-.724.532-1.312 1.188-1.312.655 0 1.187.588 1.187 1.313zm2.375 0c0-.725.532-1.313 1.188-1.313.655 0 1.187.588 1.187 1.313 0 .724-.532 1.312-1.188 1.312-.655 0-1.187-.588-1.187-1.313zm7.125 0c0 .724-.532 1.312-1.188 1.312-.655 0-1.187-.588-1.187-1.313 0-.724.532-1.312 1.188-1.312.655 0 1.187.588 1.187 1.313zm-9.5 2.625c0-.725.532-1.313 1.188-1.313.655 0 1.187.588 1.187 1.313 0 .724-.532 1.312-1.188 1.312-.655 0-1.187-.588-1.187-1.313zm7.125 0c0 .724-.532 1.312-1.188 1.312-.655 0-1.187-.588-1.187-1.313 0-.724.532-1.312 1.188-1.312.655 0 1.187.588 1.187 1.313zm-7.125 2.625c0 .724-.532 1.312-1.188 1.312-.655 0-1.187-.588-1.187-1.313 0-.724.532-1.312 1.188-1.312.655 0 1.187.588 1.187 1.313zm4.75 0c0 .724-.532 1.312-1.188 1.312-.655 0-1.187-.588-1.187-1.313 0-.724.532-1.312 1.188-1.312.655 0 1.187.588 1.187 1.313zm-2.375 2.625c0 .724-.532 1.312-1.188 1.312-.655 0-1.187-.588-1.187-1.313 0-.724.532-1.312 1.188-1.312.655 0 1.187.588 1.187 1.313zm-2.375 2.625c0 .724-.532 1.312-1.188 1.312-.655 0-1.187-.588-1.187-1.313 0-.724.532-1.312 1.188-1.312.655 0 1.187.588 1.187 1.313z"/>
</svg>
